<?xml version="1.0" encoding="utf-8"?>
<!-- Generator: Adobe Illustrator 17.1.0, SVG Export Plug-In . SVG Version: 6.00 Build 0)  -->
<!DOCTYPE svg PUBLIC "-//W3C//DTD SVG 1.1//EN" "http://www.w3.org/Graphics/SVG/1.1/DTD/svg11.dtd">
<svg version="1.1" id="Capa_1" xmlns="http://www.w3.org/2000/svg" xmlns:xlink="http://www.w3.org/1999/xlink" x="0px" y="0px"
	 viewBox="23.2 0 438.8 485.2" enable-background="new 23.2 0 438.8 485.2" xml:space="preserve">
<g>
	<g id="Layer_2_5_">
		<path fill="#fff" d="M374.1,326.2c-60.4-21.8-79.7-40.2-79.7-79.5c0-4.3,0.6-7.6,1.7-10.4c4.7-12.2,18.2-13.5,24.9-48.8
			c3.4-18,19.7-0.3,22.8-41.3c0-16.3-8.9-20.4-8.9-20.4s4.5-24.2,6.3-42.8C343.2,59.9,327.5,0,243.6,0c-0.4,0-0.7,0-1.1,0
			c-0.4,0-0.7,0-1.1,0c-83.9,0-99.6,59.9-97.4,83.1c1.8,18.6,6.3,42.8,6.3,42.8s-8.9,4.1-8.9,20.4c3.1,41,19.4,23.3,22.8,41.3
			c6.6,35.3,20.1,36.7,24.9,48.8c1.1,2.7,1.7,6,1.7,10.4c0,39.4-19.3,57.8-79.7,79.5c-60.6,21.9-87.9,44.1-87.9,59.4
			c0,15.2,0,99.6,0,99.6h219.2h0.3H462c0,0,0-84.4,0-99.6C462,370.4,434.7,348.1,374.1,326.2z"/>
	</g>
</g>
</svg>
