<?xml version="1.0" encoding="utf-8"?>
<!-- Generator: Adobe Illustrator 17.1.0, SVG Export Plug-In . SVG Version: 6.00 Build 0)  -->
<!DOCTYPE svg PUBLIC "-//W3C//DTD SVG 1.1//EN" "http://www.w3.org/Graphics/SVG/1.1/DTD/svg11.dtd">
<svg version="1.1" id="Capa_1" xmlns="http://www.w3.org/2000/svg" xmlns:xlink="http://www.w3.org/1999/xlink" x="0px" y="0px"
	 viewBox="0 9.9 56.5 36.6" enable-background="new 0 9.9 56.5 36.6" xml:space="preserve">
<g>
	<path d="M24.3,26.3H20v-5.4h4.3v1.1h-3v1h2.9v1.1h-2.9v1.1h3V26.3z M14.7,26.3l-1.9-4.2v4.2h-2.6l-0.5-1.2H7.1l-0.5,1.2H5.2
		l2.3-5.4h1.9l2.2,5.1v-5.1h2.1l1.7,3.6l1.5-3.6H19v5.4h-1.3l0-4.2l-1.9,4.2L14.7,26.3L14.7,26.3z M9.3,24l-0.9-2.1L7.5,24H9.3z
		 M30,31.9c0,1.5-1.1,1.8-2.2,1.8h-1.6v1.8h-2.5l-1.6-1.8l-1.6,1.8h-5.1v-5.4h5.2l1.6,1.8l1.6-1.8h4.1C28.9,30.2,30,30.5,30,31.9z
		 M21.3,32.8l-1.4-1.6h-3.2v1h2.8v1.1h-2.8v1.1h3.2L21.3,32.8z M24.9,30.8l-2,2.1l2,2.2V30.8z M28.6,31.9c0-0.5-0.3-0.7-0.8-0.7
		h-1.7v1.4h1.7C28.3,32.7,28.6,32.4,28.6,31.9z M26.4,26.3h-1.3v-5.4h3c0.7,0,1.1,0,1.6,0.3c0.4,0.2,0.6,0.6,0.6,1.2
		c0,0.9-0.6,1.3-0.9,1.4c0.3,0.1,0.5,0.3,0.6,0.5c0.2,0.3,0.2,0.5,0.2,1v1.1h-1.3l0-0.7c0-0.3,0-0.8-0.2-1c-0.2-0.2-0.5-0.2-0.9-0.2
		h-1.4C26.4,24.4,26.4,26.3,26.4,26.3z M26.4,23.2H28c0.2,0,0.5,0,0.6-0.1c0.2-0.1,0.3-0.3,0.3-0.5c0-0.2-0.1-0.4-0.3-0.5
		c-0.2-0.1-0.4-0.1-0.6-0.1h-1.6L26.4,23.2L26.4,23.2z M32.3,20.9H31v5.4h1.3V20.9z M33.7,25.7c-0.5-0.5-0.7-1.1-0.7-2
		c0-0.8,0.1-1.5,0.7-2.1c0.4-0.4,1.1-0.6,1.9-0.6h1.2v1.1h-1.2c-0.5,0-0.7,0.1-1,0.3c-0.2,0.2-0.4,0.7-0.4,1.2c0,0.6,0.1,1,0.4,1.3
		c0.2,0.2,0.6,0.3,0.9,0.3h0.6l1.8-4.2h1.9L42,26v-5.1h2l2.3,3.7v-3.7h1.3v5.4h-1.8l-2.4-4v4h-2.6l-0.5-1.2h-2.7L37,26.3h-1.5
		C34.9,26.3,34.1,26.2,33.7,25.7z M38,24h1.8l-0.9-2.1L38,24z M35.3,23c0,0-0.1,0.2-0.1,0.6c0,0.4,0.1,0.5,0.1,0.6c0,0,0.1,0,0.3,0
		l0.6-1.3h-0.4C35.3,23,35.3,23,35.3,23z M56.5,11.4v33.7c0,0.8-0.7,1.5-1.5,1.5H1.5c-0.8,0-1.5-0.7-1.5-1.5V11.4
		c0-0.8,0.6-1.5,1.5-1.5H55C55.8,9.9,56.5,10.6,56.5,11.4z M14.7,27.2h1.1c0.4,0,0.7-0.2,0.8-0.5l0.2-0.4v0c0,0.5,0.4,0.9,0.9,0.9
		H19c0.2,0,0.3-0.1,0.5-0.2c0.1,0.1,0.3,0.2,0.5,0.2h4.3c0.2,0,0.3-0.1,0.4-0.1c0.1,0.1,0.3,0.1,0.4,0.1h1.3c0.5,0,0.9-0.4,0.9-0.9
		v-1.1h0.5c0.1,0,0.2,0,0.2,0c0,0.1,0,0.2,0,0.3l0,0.1l0,0.7c0,0.5,0.4,0.9,0.9,0.9h1.3c0.1,0,0.3,0,0.4-0.1
		c0.1,0.1,0.3,0.1,0.4,0.1h1.3c0.4,0,0.8-0.3,0.9-0.7c0.7,0.6,1.8,0.7,2.3,0.7H37c0.4,0,0.7-0.2,0.8-0.6l0.3-0.6h1.5l0.3,0.7
		c0.1,0.3,0.5,0.5,0.8,0.5h2.6c0.5,0,0.9-0.4,0.9-0.9v-0.8l0.8,1.3c0.2,0.3,0.4,0.4,0.8,0.4h1.8c0.5,0,0.9-0.4,0.9-0.9v-5.4
		c0-0.5-0.4-0.9-0.9-0.9h-1.3c-0.5,0-0.9,0.4-0.9,0.9v0.6l-0.6-1c-0.2-0.3-0.4-0.4-0.8-0.4h-2c-0.5,0-0.9,0.4-0.9,0.9v0.8l-0.5-1.1
		c-0.1-0.3-0.5-0.5-0.8-0.5h-1.9c-0.2,0-0.4,0.1-0.5,0.2c-0.1-0.1-0.3-0.2-0.5-0.2h-1.2c-1.1,0-1.8,0.3-2.4,0.8
		c-0.1-0.4-0.4-0.8-0.9-0.8H31c-0.3,0-0.6,0.2-0.8,0.5c-0.1,0-0.1-0.1-0.2-0.1c-0.6-0.3-1.2-0.4-2-0.4h-3c-0.2,0-0.3,0.1-0.4,0.1
		c-0.1-0.1-0.3-0.1-0.4-0.1H20c-0.2,0-0.3,0.1-0.5,0.2c-0.1-0.1-0.3-0.2-0.5-0.2h-2.1c-0.4,0-0.7,0.2-0.8,0.5l-0.8,1.8l-0.8-1.8
		c-0.1-0.3-0.5-0.5-0.8-0.5h-2.1c-0.5,0-0.9,0.4-0.9,0.9v0.8l-0.5-1.1c-0.1-0.3-0.5-0.5-0.8-0.5H7.5c-0.4,0-0.7,0.2-0.8,0.5L4.4,26
		c-0.1,0.3-0.1,0.6,0.1,0.8c0.2,0.2,0.4,0.4,0.7,0.4h1.4c0.4,0,0.7-0.2,0.8-0.5L7.7,26h1.5l0.3,0.6c0.1,0.3,0.5,0.5,0.8,0.5h2.6
		c0.5,0,0.9-0.4,0.9-0.9v0l0.2,0.4C14,27,14.4,27.2,14.7,27.2z M52.2,33.8c0-0.8-0.2-1.3-0.6-1.8c0,0,0,0,0,0
		c0.2-0.2,0.4-0.4,0.4-0.7v-1.1c0-0.5-0.4-0.9-0.9-0.9h-2.6c-0.8,0-1.4,0.2-1.8,0.6c-0.1-0.3-0.4-0.6-0.8-0.6h-2.6
		c-0.7,0-1.3,0.2-1.7,0.5c-0.2-0.3-0.4-0.5-0.8-0.5h-4.3c-0.3,0-0.6,0.2-0.8,0.5c-0.1,0-0.1-0.1-0.2-0.1c-0.6-0.3-1.3-0.4-2-0.4h-3
		c-0.3,0-0.6,0.2-0.8,0.5c-0.4-0.3-1.1-0.5-2-0.5h-4.1c-0.2,0-0.5,0.1-0.6,0.3l-1,1l-0.9-1c-0.2-0.2-0.4-0.3-0.7-0.3h-5.2
		c-0.5,0-0.9,0.4-0.9,0.9v5.4c0,0.5,0.4,0.9,0.9,0.9h5.1c0.2,0,0.5-0.1,0.6-0.3l1-1.1l0.9,1c0.2,0.2,0.4,0.3,0.7,0.3h2.5
		c0.5,0,0.9-0.4,0.9-0.9v-0.9h0.7c0.9,0,1.5-0.2,1.9-0.4v1.4c0,0.5,0.4,0.9,0.9,0.9h1.3c0.5,0,0.9-0.4,0.9-0.9v-1.1h0.5
		c0.1,0,0.2,0,0.3,0c0,0.1,0,0.2,0,0.3v0.8c0,0.5,0.4,0.9,0.9,0.9h1.3c0.1,0,0.3,0,0.4-0.1c0.1,0.1,0.2,0.1,0.4,0.1h4.3
		c0.1,0,0.3,0,0.4-0.1c0.1,0.1,0.2,0.1,0.4,0.1H44c0.8,0,1.4-0.2,1.9-0.5c0.1,0.3,0.4,0.5,0.8,0.5h2.5
		C51.1,36.4,52.2,35.5,52.2,33.8z M44.2,32.3l-0.7,0c-0.2,0-0.4,0-0.5-0.1c-0.2-0.1-0.3-0.2-0.3-0.4c0-0.2,0.1-0.3,0.2-0.4
		c0.1-0.1,0.3-0.1,0.5-0.1h2.4v-1.1h-2.6c-1.3,0-1.8,0.8-1.8,1.6c0,1.7,1.5,1.6,2.7,1.7c0.2,0,0.4,0,0.5,0.1
		c0.1,0.1,0.2,0.2,0.2,0.4c0,0.1-0.1,0.3-0.2,0.3c-0.1,0.1-0.3,0.1-0.5,0.1h-2.5v1.2h2.5c1.3,0,2-0.5,2-1.7c0-0.6-0.1-0.9-0.4-1.1
		C45.4,32.4,44.9,32.3,44.2,32.3z M34.9,33c0.3,0.1,0.5,0.3,0.6,0.5c0.2,0.3,0.2,0.5,0.2,1v1.1h-1.3v-0.7c0-0.3,0-0.8-0.2-1.1
		c-0.2-0.2-0.5-0.2-0.9-0.2h-1.4v2h-1.3v-5.4h3c0.6,0,1.1,0,1.5,0.3c0.4,0.2,0.7,0.6,0.7,1.2C35.8,32.5,35.2,32.9,34.9,33z
		 M34.4,31.9c0-0.2-0.1-0.4-0.3-0.5c-0.2-0.1-0.4-0.1-0.6-0.1h-1.6v1.2h1.6c0.3,0,0.5,0,0.6-0.1C34.3,32.3,34.4,32.1,34.4,31.9z
		 M36.5,35.5h4.3v-1.1l-3,0v-1.1h2.9v-1.1h-2.9v-1h3v-1.1h-4.3V35.5z M49.5,32.3l-0.7,0c-0.2,0-0.4,0-0.5-0.1
		C48.1,32.1,48,32,48,31.8c0-0.2,0.1-0.3,0.2-0.4c0.1-0.1,0.3-0.1,0.5-0.1H51v-1.1h-2.6c-1.3,0-1.8,0.8-1.8,1.6
		c0,1.7,1.5,1.6,2.7,1.7c0.2,0,0.4,0,0.5,0.1c0.1,0.1,0.2,0.2,0.2,0.4c0,0.1-0.1,0.3-0.1,0.3c-0.1,0.1-0.3,0.1-0.5,0.1h-2.5v1.2h2.5
		c1.3,0,2-0.5,2-1.7c0-0.6-0.1-0.9-0.4-1.1C50.6,32.4,50.2,32.3,49.5,32.3z"/>
</g>
</svg>
