<?xml version="1.0" encoding="iso-8859-1"?>
<!-- Generator: Adobe Illustrator 17.1.0, SVG Export Plug-In . SVG Version: 6.00 Build 0)  -->
<!DOCTYPE svg PUBLIC "-//W3C//DTD SVG 1.1//EN" "http://www.w3.org/Graphics/SVG/1.1/DTD/svg11.dtd">
<svg version="1.1" id="Layer_1" xmlns="http://www.w3.org/2000/svg" xmlns:xlink="http://www.w3.org/1999/xlink" x="0px" y="0px"
	 viewBox="49 0 102 100" style="enable-background:new 49 0 102 100;" xml:space="preserve">
<g id="Ellipse_1_1_" style="enable-background:new    ;">
	<g id="Ellipse_1">
		<g>
			<path style="stroke:#000000;stroke-miterlimit:10;" d="M100,5.084c25.029,0,45.395,20.366,45.395,45.395
				S125.029,95.873,100,95.873S54.605,75.508,54.605,50.479S74.971,5.084,100,5.084 M100,0.957
				c-27.348,0-49.521,22.173-49.521,49.521S72.652,100,100,100s49.521-22.173,49.521-49.521S127.348,0.957,100,0.957L100,0.957z"/>
		</g>
	</g>
</g>
<g id="Shape_1_1_" style="enable-background:new    ;">
	<g id="Shape_1_2_">
		<polygon style="stroke:#000000;stroke-miterlimit:10;" points="80.827,28.974 77.905,31.896 119.173,73.164 122.095,70.242 		"/>
	</g>
</g>
<g id="Shape_2_1_" style="enable-background:new    ;">
	<g id="Shape_2">
		<g>
			<polygon style="stroke:#000000;stroke-miterlimit:10;" points="119.173,28.974 77.905,70.242 80.827,73.164 122.095,31.896 			
				"/>
		</g>
	</g>
</g>
</svg>
