<?xml version="1.0" encoding="utf-8"?>
<!-- Generator: Adobe Illustrator 17.1.0, SVG Export Plug-In . SVG Version: 6.00 Build 0)  -->
<!DOCTYPE svg PUBLIC "-//W3C//DTD SVG 1.1//EN" "http://www.w3.org/Graphics/SVG/1.1/DTD/svg11.dtd">
<svg version="1.1" id="Capa_1" xmlns="http://www.w3.org/2000/svg" xmlns:xlink="http://www.w3.org/1999/xlink" x="0px" y="0px"
	 viewBox="0 1 30 19" enable-background="new 0 1 30 19" xml:space="preserve">
<g>
	<g id="Layer_1_copy_9_">
		<path d="M22.4,10.3H20V6.2h2.3v0.7h-1.5v0.9h1.4v0.7h-1.4v1.1h1.5V10.3z M23.7,10.3h-0.8V6.2h1.2c0.9,0,1.5,0.4,1.5,1.3
			c0,0.6-0.3,1.1-0.9,1.2l1.3,1.8h-1l-1.2-1.7h-0.1C23.7,8.7,23.7,10.3,23.7,10.3z M23.7,8.1H24c0.5,0,0.8-0.3,0.8-0.6
			s-0.3-0.6-0.8-0.6h-0.3L23.7,8.1L23.7,8.1z M17.9,10.4l1.8-4.3h-0.9L17.7,9l-1.1-2.8h-0.9l1.8,4.3H17.9z M25.9,6.6L25.9,6.6
			l-0.1-0.4h0.1c0.1,0,0.1,0.1,0.1,0.1c0,0.1,0,0.1-0.1,0.1l0.1,0.1H26l-0.1-0.1L25.9,6.6L25.9,6.6z M25.9,6.3L25.9,6.3
			C25.9,6.3,25.9,6.3,25.9,6.3c0.1-0.1,0.1-0.1,0-0.1l0,0V6.3z M3.8,10.3h0.8V6.2H3.8V10.3z M3.4,8.2c0,0.6-0.3,1.2-0.8,1.6
			c-0.4,0.3-0.9,0.5-1.5,0.5H0V6.2h1.2C2.5,6.2,3.4,7,3.4,8.2z M2.6,8.2c0-0.4-0.2-0.8-0.4-1.1S1.6,6.8,1,6.8H0.8v2.8H1
			c0.5,0,0.9-0.1,1.1-0.3C2.4,9,2.6,8.7,2.6,8.2z M13.7,10.5c1,0,1.8-0.6,2.1-1.6c0-0.1,0-0.1,0.1-0.1c0-0.1,0-0.1,0-0.1
			c0-0.1,0.1-0.3,0.1-0.4C16,7,15,6,13.8,6c-0.9,0-1.7,0.6-2.1,1.4c-0.1,0.3-0.2,0.6-0.2,0.9C11.5,9.5,12.5,10.5,13.7,10.5z
			 M10.3,10.4c0.4,0,0.6-0.1,1-0.3V9.2c-0.3,0.3-0.6,0.4-1,0.4c-0.8,0-1.4-0.6-1.4-1.4c0-0.8,0.6-1.4,1.4-1.4c0.4,0,0.7,0.1,1,0.4
			V6.3c-0.4-0.2-0.6-0.3-1-0.3C9,6,8.1,7,8.1,8.2C8,9.5,9,10.4,10.3,10.4z M25.6,6.4c0-0.2,0.1-0.3,0.3-0.3s0.3,0.1,0.3,0.3
			s-0.1,0.3-0.3,0.3C25.7,6.7,25.6,6.6,25.6,6.4z M25.7,6.4c0,0.1,0.1,0.3,0.3,0.3s0.3-0.1,0.3-0.3s-0.1-0.3-0.3-0.3
			S25.7,6.2,25.7,6.4z M30,20v-8c0,0-7.8,5.5-22.1,8H30L30,20z M6.6,7.7C6.1,7.5,5.9,7.4,5.9,7.2c0-0.3,0.3-0.4,0.6-0.4
			c0.3,0,0.4,0.1,0.6,0.3l0.4-0.6C7.3,6.2,6.9,6.1,6.4,6.1c-0.8,0-1.3,0.5-1.3,1.2c0,0.6,0.3,0.9,1,1.1c0.3,0.1,0.5,0.2,0.6,0.3
			c0.2,0.1,0.3,0.3,0.3,0.4c0,0.3-0.3,0.6-0.6,0.6c-0.4,0-0.7-0.2-0.9-0.6L4.9,9.6c0.4,0.6,0.8,0.8,1.4,0.8c0.8,0,1.4-0.6,1.4-1.4
			C7.8,8.4,7.5,8.1,6.6,7.7z"/>
	</g>
</g>
</svg>
