<?xml version="1.0" encoding="utf-8"?>
<!-- Generator: Adobe Illustrator 17.1.0, SVG Export Plug-In . SVG Version: 6.00 Build 0)  -->
<!DOCTYPE svg PUBLIC "-//W3C//DTD SVG 1.1//EN" "http://www.w3.org/Graphics/SVG/1.1/DTD/svg11.dtd">
<svg version="1.1" id="Capa_1" xmlns="http://www.w3.org/2000/svg" xmlns:xlink="http://www.w3.org/1999/xlink" x="0px" y="0px"
	 viewBox="0 0 30 19.5" enable-background="new 0 0 30 19.5" xml:space="preserve">
<g>
	<path fill="#2A3490" d="M8,8.4c-0.6,0-1,0.2-1,0.2L6.9,9.3c0,0,0.4-0.2,0.9-0.2c0.3,0,0.5,0.1,0.5,0.3c0,0.2-0.1,0.2-0.1,0.2
		s-0.3,0-0.4,0c-0.7,0-1.4,0.3-1.4,1.2c0,0.7,0.5,0.9,0.8,0.9c0.6,0,0.8-0.4,0.8-0.4l-0.1,0.3h0.7l0.3-2.3C9.1,8.5,8.3,8.4,8,8.4z
		 M7.6,11.1c-0.3,0-0.3-0.2-0.3-0.3c0-0.2,0.1-0.5,0.7-0.5c0.2,0,0.2,0,0.2,0C8.2,10.4,8.1,11.1,7.6,11.1z M10.1,9.5
		c0,0.4,1,0.2,1,1.2c0,1.1-1.1,1.1-1.2,1.1c-0.7,0-0.9-0.1-0.9-0.1l0.1-0.7c0,0,0.3,0.1,0.7,0.1c0.2,0,0.5,0,0.5-0.3
		c0-0.4-1-0.3-1-1.2c0-0.8,0.6-1.1,1.2-1.1c0.5,0,0.7,0.1,0.7,0.1l-0.2,0.7c0,0-0.4-0.1-0.6-0.1C10.3,9.2,10.1,9.3,10.1,9.5z
		 M12.1,10.7c0,0.1,0,0.3,0.3,0.3c0.1,0,0.2,0,0.2,0l-0.1,0.7c-0.1,0-0.3,0.1-0.6,0.1c-0.4,0-0.6-0.2-0.6-0.7c0-0.3,0.5-3,0.5-3h0.8
		l-0.1,0.5h0.4l-0.2,0.7h-0.4L12.1,10.7z M15.2,10.4c0,0,0.1-0.5,0.1-0.7c0-0.5-0.3-1.2-1.2-1.2c-0.8,0-1.4,0.9-1.4,1.9
		c0,1.2,0.7,1.4,1.4,1.4c0.6,0,0.8-0.2,0.8-0.2l0.2-0.8c0,0-0.5,0.2-0.8,0.2c-0.9,0-0.7-0.6-0.7-0.6L15.2,10.4z M14.2,9.2
		c0.5,0,0.4,0.5,0.4,0.6h-0.9C13.6,9.7,13.8,9.2,14.2,9.2z M6.7,7.8l-0.6,3.9H5.3l0.5-2.9l-1.1,2.9H4.1L4.1,8.8l-0.5,2.9H2.8
		l0.6-3.9h1.2l0.1,2.4l0.8-2.4H6.7z M17.2,7.3h-4.2c0.1-0.1,0.2-0.4,0.4-0.8h3.5C16.9,6.7,17,7,17.2,7.3z M16.4,5.6h-2.6
		c0.2-0.3,0.4-0.6,0.5-0.8h1.5C16,5.1,16.2,5.4,16.4,5.6z M15,15.5c-0.3-0.3-0.5-0.5-0.8-0.8h1.6C15.6,14.9,15.3,15.2,15,15.5
		L15,15.5C15,15.5,15,15.5,15,15.5C15,15.5,15,15.5,15,15.5z M16.4,13.8h-2.7c-0.2-0.3-0.3-0.5-0.5-0.8h3.6
		C16.7,13.3,16.5,13.5,16.4,13.8z M17.4,8.5c-0.1,0.2-0.2,0.4-0.3,1c-0.6-0.2-0.6,0.9-0.8,2.3h-0.8l0.5-3.2h0.7L16.6,9
		c0,0,0.3-0.5,0.6-0.5C17.3,8.5,17.4,8.5,17.4,8.5z M18.8,10.9c0.3,0,0.7-0.2,0.7-0.2l-0.2,0.9c0,0-0.4,0.1-0.7,0.1
		c-1,0-1.5-0.7-1.5-1.7c0-1.5,0.9-2.3,1.9-2.3c0.4,0,0.9,0.2,0.9,0.2l-0.2,0.8c0,0-0.3-0.2-0.7-0.2C18.5,8.5,18,9.1,18,10
		C18.1,10.5,18.3,10.9,18.8,10.9z M26.9,11.3c-0.1,0-0.1,0.1-0.1,0.1c0,0.1-0.1,0.1-0.1,0.1s0,0.1,0.1,0.1c0,0.1,0.1,0.1,0.1,0.1
		c0.1,0,0.1,0.1,0.1,0.1c0.1,0,0.1,0,0.1-0.1c0.1,0,0.1-0.1,0.1-0.1c0-0.1,0.1-0.1,0.1-0.1c0-0.1,0-0.1-0.1-0.1
		c0-0.1-0.1-0.1-0.1-0.1c0-0.1-0.1-0.1-0.1-0.1C26.9,11.2,26.9,11.2,26.9,11.3z M27.1,11.4c0,0.1,0.1,0.1,0.1,0.1s0,0.1-0.1,0.1
		c0,0.1-0.1,0.1-0.1,0.1c-0.1,0-0.1,0.1-0.1,0.1c-0.1,0-0.1,0-0.1-0.1c-0.1,0-0.1-0.1-0.1-0.1s-0.1-0.1-0.1-0.1s0-0.1,0.1-0.1
		c0-0.1,0.1-0.1,0.1-0.1s0.1,0,0.1,0S27,11.3,27.1,11.4C27.1,11.3,27.1,11.3,27.1,11.4z M23.8,10.4c0,0.7,0.3,1.3,1,1.3
		c0.5,0,0.7-0.3,0.7-0.3l-0.1,0.3h0.8L27,7.9h-0.8L26,8.9c0,0-0.3-0.4-0.8-0.4C24.5,8.5,23.8,9.4,23.8,10.4z M25.8,9.9
		c0,0.4-0.2,1-0.6,1c-0.3,0-0.4-0.3-0.4-0.6c0-0.6,0.3-1.1,0.6-1.1C25.6,9.2,25.8,9.5,25.8,9.9z M27.1,14L27.1,14L27.1,14
		c0.1-0.1,0.1-0.1,0.1-0.1v-0.1c0,0,0,0-0.1,0h-0.1H27v0.3l0,0H27V14l0,0C27.1,14,27.1,14,27.1,14C27.1,14,27.1,14.1,27.1,14v0.1
		h0.1L27.1,14C27.1,14.1,27.1,14.1,27.1,14z M27.1,14L27.1,14L27,13.9h0.1h0.1l0,0l0,0C27.1,14,27.1,14,27.1,14
		C27.1,14,27.1,14,27.1,14z M29.2,0H0.8C0.3,0,0,0.4,0,0.8v17.9c0,0.4,0.3,0.8,0.8,0.8h28.4c0.4,0,0.8-0.4,0.8-0.8V0.8
		C30,0.4,29.6,0,29.2,0z M27.3,14.1c0,0.1-0.1,0.1-0.1,0.1c-0.1,0.1-0.1,0.1-0.1,0.1c-0.1,0-0.1,0-0.1-0.1c-0.1,0-0.1-0.1-0.1-0.1
		c0-0.1-0.1-0.1-0.1-0.1s0-0.1,0.1-0.1c0-0.1,0.1-0.1,0.1-0.1c0.1,0,0.1-0.1,0.1-0.1c0.1,0,0.1,0,0.1,0.1c0.1,0,0.1,0.1,0.1,0.1
		c0,0.1,0.1,0.1,0.1,0.1S27.3,14.1,27.3,14.1z M27.9,9.7c0,4.2-3.5,7.7-7.7,7.7c-2,0-3.8-0.7-5.2-2c-1.4,1.2-3.2,2-5.2,2
		c-4.2,0-7.7-3.5-7.7-7.7S5.6,2.1,9.8,2h0.1c2,0,3.8,0.7,5.2,2c1.4-1.2,3.2-2,5.2-2C24.4,2,27.9,5.5,27.9,9.7L27.9,9.7z M26.9,11.3
		v0.3h0.1v-0.1l0,0H27c0,0,0,0.1,0.1,0.1v0.1h0.1v-0.1L27,11.5l0,0h0.1v-0.1v-0.1c0,0,0,0-0.1,0s-0.1,0-0.1,0L26.9,11.3L26.9,11.3z
		 M27,11.4C27,11.4,27,11.4,27,11.4C27,11.4,27,11.4,27,11.4C27,11.4,27,11.4,27,11.4l-0.1,0.1v-0.1L27,11.4
		C27,11.4,27,11.4,27,11.4L27,11.4z M21.3,8.4c-0.6,0-1,0.2-1,0.2l-0.1,0.7c0,0,0.4-0.2,0.9-0.2c0.3,0,0.5,0.1,0.5,0.3
		c0,0.2-0.1,0.2-0.1,0.2s-0.3,0-0.4,0c-0.7,0-1.4,0.3-1.4,1.2c0,0.7,0.5,0.9,0.8,0.9c0.6,0,0.8-0.4,0.8-0.4l-0.1,0.3h0.7l0.3-2.3
		C22.4,8.5,21.6,8.4,21.3,8.4z M20.9,11.1c-0.3,0-0.3-0.2-0.3-0.3c0-0.2,0.1-0.5,0.7-0.5c0.2,0,0.2,0,0.2,0
		C21.5,10.4,21.3,11.1,20.9,11.1z M23.9,9.5c-0.6-0.2-0.6,0.9-0.8,2.3h-0.8l0.5-3.2h0.7L23.4,9c0,0,0.3-0.5,0.6-0.5
		c0.1,0,0.2,0,0.2,0C24.1,8.7,24,8.9,23.9,9.5z"/>
</g>
</svg>
