<?xml version="1.0" encoding="utf-8"?>
<!-- Generator: Adobe Illustrator 17.1.0, SVG Export Plug-In . SVG Version: 6.00 Build 0)  -->
<!DOCTYPE svg PUBLIC "-//W3C//DTD SVG 1.1//EN" "http://www.w3.org/Graphics/SVG/1.1/DTD/svg11.dtd">
<svg version="1.1" id="Layer_1" xmlns="http://www.w3.org/2000/svg" xmlns:xlink="http://www.w3.org/1999/xlink" x="0px" y="0px"
	 viewBox="0 14.3 30 4.5" enable-background="new 0 14.3 30 4.5" xml:space="preserve">
<g>
	<path fill="#1C76AF" d="M2.3,14.3l2.3,3.2h0.1l0-3.2H6v4.3H3.7l-2.3-3.2H1.3l0,3.2H0v-4.3H2.3z"/>
	<path fill="#1C76AF" d="M11.7,14.3v1H8.2V16h3.3v1H8.2v0.7h3.5v1H6.9v-4.3H11.7z"/>
	<path fill="#1C76AF" d="M13.8,14.3v1.6h0.7l1.7-1.6h2l-2.5,2.1l2.7,2.2h-2L14.5,17h-0.7v1.7h-1.3v-4.3H13.8z"/>
	<path fill="#1C76AF" d="M20.4,14.3v3.2h3.1v1.1H19v-4.3H20.4z"/>
	<path fill="#1C76AF" d="M29.6,14.6c0.3,0.3,0.4,0.7,0.4,1.9c0,1.2-0.1,1.7-0.4,1.9s-0.7,0.3-2.5,0.3c-1.8,0-2.2,0-2.6-0.3
		c-0.3-0.3-0.4-0.7-0.4-2c0-1.2,0.1-1.6,0.4-1.9c0.3-0.3,0.7-0.3,2.5-0.3S29.2,14.3,29.6,14.6z M25.5,15.7c-0.1,0.1-0.1,0.4-0.1,0.9
		c0,0.5,0,0.7,0.2,0.8c0.2,0.1,0.4,0.2,1.5,0.2c1.1,0,1.3,0,1.4-0.2c0.1-0.1,0.2-0.3,0.2-0.8c0-0.6,0-0.9-0.2-1
		c-0.1-0.2-0.3-0.2-1.5-0.2C25.7,15.4,25.6,15.4,25.5,15.7z"/>
</g>
</svg>
