<?xml version="1.0" encoding="iso-8859-1"?>
<!-- Generator: Adobe Illustrator 17.1.0, SVG Export Plug-In . SVG Version: 6.00 Build 0)  -->
<!DOCTYPE svg PUBLIC "-//W3C//DTD SVG 1.1//EN" "http://www.w3.org/Graphics/SVG/1.1/DTD/svg11.dtd">
<svg version="1.1" id="Layer_1" xmlns="http://www.w3.org/2000/svg" xmlns:xlink="http://www.w3.org/1999/xlink" x="0px" y="0px"
	 viewBox="0 0 221.954 32.979" style="enable-background:new 0 0 221.954 32.979;" xml:space="preserve">
<g>
	<path style="fill:#FFFFFF;" d="M17.089,0.48l16.753,23.858h1.008L34.611,0.48h9.937v32.018H27.602L10.753,8.593H9.697l0.24,23.906
		H0V0.48H17.089z"/>
	<path style="fill:#FFFFFF;" d="M86.834,0.48v7.537H61.008v4.656h24.53v7.057h-24.53v5.088h26.019v7.68H51.408V0.48H86.834z"/>
	<path style="fill:#FFFFFF;" d="M102.241,0.48v11.617h5.328l12.673-11.809h14.93l-18.53,15.89l20.066,16.321h-14.785l-14.353-12.241
		h-5.328v12.241h-9.745V0.48H102.241z"/>
	<path style="fill:#FFFFFF;" d="M150.626,0.48v23.858h22.754v8.16H140.4V0.48H150.626z"/>
	<path style="fill:#FFFFFF;" d="M218.786,2.208c2.448,1.872,3.168,5.088,3.168,14.257c0,9.217-0.72,12.433-3.168,14.305
		c-2.448,1.872-5.473,2.208-18.722,2.208c-13.489,0-16.466-0.336-18.914-2.208c-2.496-1.92-3.168-5.088-3.168-14.498
		c0-8.929,0.72-12.193,3.168-14.065C183.598,0.336,186.575,0,199.968,0C213.361,0,216.337,0.336,218.786,2.208z M188.495,10.321
		c-0.576,1.104-0.768,2.928-0.768,7.008c0,3.984,0.288,5.281,1.44,6.193c1.296,1.008,2.832,1.152,10.896,1.152
		c7.825,0,9.409-0.192,10.705-1.152c1.103-0.864,1.44-2.256,1.44-6.144c0-4.753-0.288-6.577-1.152-7.633
		c-1.104-1.296-2.16-1.44-11.089-1.44C190.367,8.305,189.456,8.449,188.495,10.321z"/>
</g>
</svg>
