<?xml version="1.0" encoding="utf-8"?>
<!-- Generator: Adobe Illustrator 17.1.0, SVG Export Plug-In . SVG Version: 6.00 Build 0)  -->
<!DOCTYPE svg PUBLIC "-//W3C//DTD SVG 1.1//EN" "http://www.w3.org/Graphics/SVG/1.1/DTD/svg11.dtd">
<svg version="1.1" id="Capa_1" xmlns="http://www.w3.org/2000/svg" xmlns:xlink="http://www.w3.org/1999/xlink" x="0px" y="0px"
	 viewBox="0 7.7 50.4 33" enable-background="new 0 7.7 50.4 33" xml:space="preserve">
<g>
	<g id="Layer_1_copy_5_">
		<path d="M9,20.6c-0.2-0.3-0.4-0.6-0.8-0.8c-0.3-0.2-0.7-0.4-1.2-0.4c-0.5-0.1-1-0.1-1.6-0.1l-2.9,0c-0.3,0-0.6,0.2-0.7,0.5L0,28.2
			c-0.1,0.3,0.1,0.5,0.4,0.5h1.4c0.3,0,0.6-0.2,0.7-0.5l0.5-2c0.1-0.3,0.4-0.5,0.7-0.5H4c1.7,0,3-0.3,3.9-1c0.9-0.7,1.4-1.6,1.4-2.7
			C9.3,21.3,9.2,20.9,9,20.6z M6.1,23.3c-0.4,0.3-1,0.5-1.7,0.5H4c-0.3,0-0.5-0.2-0.4-0.5L4,21.5C4.1,21.2,4.4,21,4.7,21l0.4,0
			c0.5,0,0.9,0.1,1.2,0.3c0.3,0.2,0.4,0.5,0.4,0.8C6.7,22.6,6.5,23,6.1,23.3z M24.9,22.3l-5.5,9.3c-0.2,0.3-0.6,0.5-0.9,0.5l-1.4,0
			c-0.3,0-0.4-0.2-0.2-0.5l1.2-2.1c0,0,0.1-0.1,0-0.8C18,27.3,17.1,22,17.1,22c-0.1-0.3,0.1-0.5,0.4-0.5l1.2,0
			c0.4,0,0.7,0.2,0.7,0.5l0.6,3.7l0.2,0c0.2-0.3,2.2-3.7,2.2-3.7c0.2-0.3,0.6-0.5,0.9-0.5c0,0,1.3,0,1.6,0
			C25.5,21.5,24.9,22.3,24.9,22.3z M34,20.6c-0.2-0.3-0.4-0.6-0.8-0.8c-0.3-0.2-0.7-0.4-1.2-0.4c-0.5-0.1-1-0.1-1.6-0.1l-2.9,0
			c-0.3,0-0.6,0.2-0.7,0.5l-1.9,8.4c-0.1,0.3,0.1,0.5,0.4,0.5l1.4,0c0.3,0,0.6-0.2,0.7-0.5l0.5-2c0.1-0.3,0.4-0.5,0.7-0.5h0.4
			c1.7,0,3-0.3,3.9-1c0.9-0.7,1.4-1.6,1.4-2.7C34.2,21.4,34.1,21,34,20.6z M31,23.4c-0.4,0.3-1,0.5-1.7,0.5h-0.3
			c-0.3,0-0.5-0.2-0.4-0.5l0.4-1.8c0.1-0.3,0.4-0.5,0.7-0.5l0.4,0c0.5,0,0.9,0.1,1.2,0.3c0.3,0.2,0.4,0.5,0.4,0.8
			C31.6,22.6,31.4,23.1,31,23.4z M15.7,21.8c-0.5-0.3-1.3-0.4-2.5-0.4c-0.6,0-1.1,0-1.7,0.1c-0.4,0.1-0.5,0.1-0.7,0.1
			c-0.5,0.1-0.6,0.6-0.6,0.6L10.1,23c-0.1,0.4,0.2,0.4,0.3,0.4c0.2-0.1,0.4-0.1,0.8-0.2c0.4-0.1,0.9-0.2,1.3-0.2
			c0.5,0,1,0.1,1.2,0.2c0.3,0.1,0.4,0.3,0.4,0.6l0,0.2L13.9,24c-0.8,0-1.3,0.1-2,0.2c-0.7,0.1-1.3,0.3-1.7,0.5
			c-0.5,0.2-0.9,0.5-1.2,0.9c-0.3,0.4-0.4,0.9-0.4,1.4c0,0.5,0.2,1,0.6,1.3c0.4,0.3,0.9,0.5,1.4,0.5c0.4,0,0.7,0,0.9-0.1l0.7-0.2
			l0.6-0.3l0.5-0.3l0,0l-0.1,0.2l0,0v0c-0.1,0.3,0.1,0.5,0.4,0.5l0,0h0h1.1h0.2l0,0c0.3,0,0.5-0.3,0.6-0.5l1-4.3l0.1-0.4l0-0.3
			C16.4,22.5,16.2,22.1,15.7,21.8z M13.4,26.7L13.2,27l-0.5,0.3c-0.3,0.1-0.5,0.2-0.7,0.2c-0.3,0-0.6,0-0.8-0.1l-0.3-0.5
			c0-0.3,0.1-0.5,0.2-0.7l0.6-0.4c0.2-0.1,0.6-0.2,0.9-0.2c0.3,0,0.9-0.1,1-0.1l0.1,0.2C13.7,25.6,13.5,26.3,13.4,26.7z M47.7,18.8
			h0.5v0.2h-0.5v0.6l0,0.2l0,0.1l0.1,0.1l0.1,0l0.1,0l0.1,0h0v0.2l-0.1,0l-0.1,0L47.6,20l-0.1-0.4V19h-0.2v-0.2h0.2v-0.4h0.2V18.8
			L47.7,18.8z M40.6,21.8c-0.5-0.3-1.3-0.4-2.5-0.4c-0.6,0-1.1,0-1.7,0.1c-0.4,0.1-0.5,0.1-0.7,0.1c-0.5,0.1-0.6,0.6-0.6,0.6L35,23
			c-0.1,0.4,0.2,0.4,0.3,0.4c0.2-0.1,0.4-0.1,0.8-0.2c0.4-0.1,0.9-0.2,1.3-0.2c0.5,0,1,0.1,1.2,0.2c0.3,0.1,0.4,0.3,0.4,0.6l0,0.2
			L38.8,24c-0.8,0-1.4,0.1-2,0.2c-0.7,0.1-1.3,0.3-1.7,0.5c-0.5,0.2-0.9,0.5-1.2,0.9c-0.3,0.4-0.4,0.9-0.4,1.4c0,0.5,0.2,1,0.6,1.3
			c0.4,0.3,0.9,0.5,1.4,0.5c0.4,0,0.7,0,0.9-0.1l0.7-0.2l0.6-0.3l0.5-0.3l0,0l0,0.2l0,0l0,0c-0.1,0.3,0.1,0.5,0.4,0.5l0,0h0l0,0
			c0.2,0,0.8,0,1.1,0h0.2l0,0c0.3,0,0.5-0.3,0.6-0.5l1-4.3l0.1-0.4l0-0.3C41.4,22.6,41.1,22.1,40.6,21.8z M38.4,26.7L38.2,27
			l-0.5,0.3c-0.3,0.1-0.5,0.2-0.7,0.2c-0.3,0-0.6,0-0.8-0.1l-0.3-0.5c0-0.3,0.1-0.5,0.2-0.7c0.1-0.2,0.3-0.3,0.6-0.4
			c0.2-0.1,0.5-0.2,0.9-0.2c0.3,0,0.9-0.1,1-0.1l0.1,0.2C38.6,25.6,38.5,26.3,38.4,26.7z M45.7,19.8L45.7,19.8l-1.8,8.3l-0.1,0.1
			c-0.1,0.2-0.3,0.4-0.6,0.4H42l0,0c-0.2,0-0.4-0.2-0.3-0.5l0,0l0.1-0.2l1.7-7.8l0.1-0.3l0.1-0.1c0.1-0.2,0.3-0.4,0.6-0.4h1.2
			C45.6,19.3,45.8,19.6,45.7,19.8z M50.3,18.9l0.1,0.4v0.9h-0.2v-0.8l0-0.2l0-0.1L50.1,19l-0.1,0l-0.2,0l-0.2,0.1l0,0.1l0,0.1v0.9
			h-0.2v-0.8l0-0.2l0-0.1L49.2,19l-0.2,0l-0.2,0l-0.2,0.1v1h-0.2v-1.3h0.2v0.1l0.2-0.1l0.2,0l0.2,0.1l0.1,0.2l0.2-0.2l0.2,0
			L50.3,18.9z"/>
	</g>
</g>
</svg>
