<svg xmlns="http://www.w3.org/2000/svg"><symbol id="account" viewBox="23.2 0 438.8 485.2">
<g>
	<g id="Layer_2_5_">
		<path fill="#fff" d="M374.1,326.2c-60.4-21.8-79.7-40.2-79.7-79.5c0-4.3,0.6-7.6,1.7-10.4c4.7-12.2,18.2-13.5,24.9-48.8
			c3.4-18,19.7-0.3,22.8-41.3c0-16.3-8.9-20.4-8.9-20.4s4.5-24.2,6.3-42.8C343.2,59.9,327.5,0,243.6,0c-0.4,0-0.7,0-1.1,0
			c-0.4,0-0.7,0-1.1,0c-83.9,0-99.6,59.9-97.4,83.1c1.8,18.6,6.3,42.8,6.3,42.8s-8.9,4.1-8.9,20.4c3.1,41,19.4,23.3,22.8,41.3
			c6.6,35.3,20.1,36.7,24.9,48.8c1.1,2.7,1.7,6,1.7,10.4c0,39.4-19.3,57.8-79.7,79.5c-60.6,21.9-87.9,44.1-87.9,59.4
			c0,15.2,0,99.6,0,99.6h219.2h0.3H462c0,0,0-84.4,0-99.6C462,370.4,434.7,348.1,374.1,326.2z"/>
	</g>
</g>
</symbol><symbol id="american-footer" viewBox="0 9.9 56.5 36.6">
<g>
	<path d="M24.3,26.3H20v-5.4h4.3v1.1h-3v1h2.9v1.1h-2.9v1.1h3V26.3z M14.7,26.3l-1.9-4.2v4.2h-2.6l-0.5-1.2H7.1l-0.5,1.2H5.2
		l2.3-5.4h1.9l2.2,5.1v-5.1h2.1l1.7,3.6l1.5-3.6H19v5.4h-1.3l0-4.2l-1.9,4.2L14.7,26.3L14.7,26.3z M9.3,24l-0.9-2.1L7.5,24H9.3z
		 M30,31.9c0,1.5-1.1,1.8-2.2,1.8h-1.6v1.8h-2.5l-1.6-1.8l-1.6,1.8h-5.1v-5.4h5.2l1.6,1.8l1.6-1.8h4.1C28.9,30.2,30,30.5,30,31.9z
		 M21.3,32.8l-1.4-1.6h-3.2v1h2.8v1.1h-2.8v1.1h3.2L21.3,32.8z M24.9,30.8l-2,2.1l2,2.2V30.8z M28.6,31.9c0-0.5-0.3-0.7-0.8-0.7
		h-1.7v1.4h1.7C28.3,32.7,28.6,32.4,28.6,31.9z M26.4,26.3h-1.3v-5.4h3c0.7,0,1.1,0,1.6,0.3c0.4,0.2,0.6,0.6,0.6,1.2
		c0,0.9-0.6,1.3-0.9,1.4c0.3,0.1,0.5,0.3,0.6,0.5c0.2,0.3,0.2,0.5,0.2,1v1.1h-1.3l0-0.7c0-0.3,0-0.8-0.2-1c-0.2-0.2-0.5-0.2-0.9-0.2
		h-1.4C26.4,24.4,26.4,26.3,26.4,26.3z M26.4,23.2H28c0.2,0,0.5,0,0.6-0.1c0.2-0.1,0.3-0.3,0.3-0.5c0-0.2-0.1-0.4-0.3-0.5
		c-0.2-0.1-0.4-0.1-0.6-0.1h-1.6L26.4,23.2L26.4,23.2z M32.3,20.9H31v5.4h1.3V20.9z M33.7,25.7c-0.5-0.5-0.7-1.1-0.7-2
		c0-0.8,0.1-1.5,0.7-2.1c0.4-0.4,1.1-0.6,1.9-0.6h1.2v1.1h-1.2c-0.5,0-0.7,0.1-1,0.3c-0.2,0.2-0.4,0.7-0.4,1.2c0,0.6,0.1,1,0.4,1.3
		c0.2,0.2,0.6,0.3,0.9,0.3h0.6l1.8-4.2h1.9L42,26v-5.1h2l2.3,3.7v-3.7h1.3v5.4h-1.8l-2.4-4v4h-2.6l-0.5-1.2h-2.7L37,26.3h-1.5
		C34.9,26.3,34.1,26.2,33.7,25.7z M38,24h1.8l-0.9-2.1L38,24z M35.3,23c0,0-0.1,0.2-0.1,0.6c0,0.4,0.1,0.5,0.1,0.6c0,0,0.1,0,0.3,0
		l0.6-1.3h-0.4C35.3,23,35.3,23,35.3,23z M56.5,11.4v33.7c0,0.8-0.7,1.5-1.5,1.5H1.5c-0.8,0-1.5-0.7-1.5-1.5V11.4
		c0-0.8,0.6-1.5,1.5-1.5H55C55.8,9.9,56.5,10.6,56.5,11.4z M14.7,27.2h1.1c0.4,0,0.7-0.2,0.8-0.5l0.2-0.4v0c0,0.5,0.4,0.9,0.9,0.9
		H19c0.2,0,0.3-0.1,0.5-0.2c0.1,0.1,0.3,0.2,0.5,0.2h4.3c0.2,0,0.3-0.1,0.4-0.1c0.1,0.1,0.3,0.1,0.4,0.1h1.3c0.5,0,0.9-0.4,0.9-0.9
		v-1.1h0.5c0.1,0,0.2,0,0.2,0c0,0.1,0,0.2,0,0.3l0,0.1l0,0.7c0,0.5,0.4,0.9,0.9,0.9h1.3c0.1,0,0.3,0,0.4-0.1
		c0.1,0.1,0.3,0.1,0.4,0.1h1.3c0.4,0,0.8-0.3,0.9-0.7c0.7,0.6,1.8,0.7,2.3,0.7H37c0.4,0,0.7-0.2,0.8-0.6l0.3-0.6h1.5l0.3,0.7
		c0.1,0.3,0.5,0.5,0.8,0.5h2.6c0.5,0,0.9-0.4,0.9-0.9v-0.8l0.8,1.3c0.2,0.3,0.4,0.4,0.8,0.4h1.8c0.5,0,0.9-0.4,0.9-0.9v-5.4
		c0-0.5-0.4-0.9-0.9-0.9h-1.3c-0.5,0-0.9,0.4-0.9,0.9v0.6l-0.6-1c-0.2-0.3-0.4-0.4-0.8-0.4h-2c-0.5,0-0.9,0.4-0.9,0.9v0.8l-0.5-1.1
		c-0.1-0.3-0.5-0.5-0.8-0.5h-1.9c-0.2,0-0.4,0.1-0.5,0.2c-0.1-0.1-0.3-0.2-0.5-0.2h-1.2c-1.1,0-1.8,0.3-2.4,0.8
		c-0.1-0.4-0.4-0.8-0.9-0.8H31c-0.3,0-0.6,0.2-0.8,0.5c-0.1,0-0.1-0.1-0.2-0.1c-0.6-0.3-1.2-0.4-2-0.4h-3c-0.2,0-0.3,0.1-0.4,0.1
		c-0.1-0.1-0.3-0.1-0.4-0.1H20c-0.2,0-0.3,0.1-0.5,0.2c-0.1-0.1-0.3-0.2-0.5-0.2h-2.1c-0.4,0-0.7,0.2-0.8,0.5l-0.8,1.8l-0.8-1.8
		c-0.1-0.3-0.5-0.5-0.8-0.5h-2.1c-0.5,0-0.9,0.4-0.9,0.9v0.8l-0.5-1.1c-0.1-0.3-0.5-0.5-0.8-0.5H7.5c-0.4,0-0.7,0.2-0.8,0.5L4.4,26
		c-0.1,0.3-0.1,0.6,0.1,0.8c0.2,0.2,0.4,0.4,0.7,0.4h1.4c0.4,0,0.7-0.2,0.8-0.5L7.7,26h1.5l0.3,0.6c0.1,0.3,0.5,0.5,0.8,0.5h2.6
		c0.5,0,0.9-0.4,0.9-0.9v0l0.2,0.4C14,27,14.4,27.2,14.7,27.2z M52.2,33.8c0-0.8-0.2-1.3-0.6-1.8c0,0,0,0,0,0
		c0.2-0.2,0.4-0.4,0.4-0.7v-1.1c0-0.5-0.4-0.9-0.9-0.9h-2.6c-0.8,0-1.4,0.2-1.8,0.6c-0.1-0.3-0.4-0.6-0.8-0.6h-2.6
		c-0.7,0-1.3,0.2-1.7,0.5c-0.2-0.3-0.4-0.5-0.8-0.5h-4.3c-0.3,0-0.6,0.2-0.8,0.5c-0.1,0-0.1-0.1-0.2-0.1c-0.6-0.3-1.3-0.4-2-0.4h-3
		c-0.3,0-0.6,0.2-0.8,0.5c-0.4-0.3-1.1-0.5-2-0.5h-4.1c-0.2,0-0.5,0.1-0.6,0.3l-1,1l-0.9-1c-0.2-0.2-0.4-0.3-0.7-0.3h-5.2
		c-0.5,0-0.9,0.4-0.9,0.9v5.4c0,0.5,0.4,0.9,0.9,0.9h5.1c0.2,0,0.5-0.1,0.6-0.3l1-1.1l0.9,1c0.2,0.2,0.4,0.3,0.7,0.3h2.5
		c0.5,0,0.9-0.4,0.9-0.9v-0.9h0.7c0.9,0,1.5-0.2,1.9-0.4v1.4c0,0.5,0.4,0.9,0.9,0.9h1.3c0.5,0,0.9-0.4,0.9-0.9v-1.1h0.5
		c0.1,0,0.2,0,0.3,0c0,0.1,0,0.2,0,0.3v0.8c0,0.5,0.4,0.9,0.9,0.9h1.3c0.1,0,0.3,0,0.4-0.1c0.1,0.1,0.2,0.1,0.4,0.1h4.3
		c0.1,0,0.3,0,0.4-0.1c0.1,0.1,0.2,0.1,0.4,0.1H44c0.8,0,1.4-0.2,1.9-0.5c0.1,0.3,0.4,0.5,0.8,0.5h2.5
		C51.1,36.4,52.2,35.5,52.2,33.8z M44.2,32.3l-0.7,0c-0.2,0-0.4,0-0.5-0.1c-0.2-0.1-0.3-0.2-0.3-0.4c0-0.2,0.1-0.3,0.2-0.4
		c0.1-0.1,0.3-0.1,0.5-0.1h2.4v-1.1h-2.6c-1.3,0-1.8,0.8-1.8,1.6c0,1.7,1.5,1.6,2.7,1.7c0.2,0,0.4,0,0.5,0.1
		c0.1,0.1,0.2,0.2,0.2,0.4c0,0.1-0.1,0.3-0.2,0.3c-0.1,0.1-0.3,0.1-0.5,0.1h-2.5v1.2h2.5c1.3,0,2-0.5,2-1.7c0-0.6-0.1-0.9-0.4-1.1
		C45.4,32.4,44.9,32.3,44.2,32.3z M34.9,33c0.3,0.1,0.5,0.3,0.6,0.5c0.2,0.3,0.2,0.5,0.2,1v1.1h-1.3v-0.7c0-0.3,0-0.8-0.2-1.1
		c-0.2-0.2-0.5-0.2-0.9-0.2h-1.4v2h-1.3v-5.4h3c0.6,0,1.1,0,1.5,0.3c0.4,0.2,0.7,0.6,0.7,1.2C35.8,32.5,35.2,32.9,34.9,33z
		 M34.4,31.9c0-0.2-0.1-0.4-0.3-0.5c-0.2-0.1-0.4-0.1-0.6-0.1h-1.6v1.2h1.6c0.3,0,0.5,0,0.6-0.1C34.3,32.3,34.4,32.1,34.4,31.9z
		 M36.5,35.5h4.3v-1.1l-3,0v-1.1h2.9v-1.1h-2.9v-1h3v-1.1h-4.3V35.5z M49.5,32.3l-0.7,0c-0.2,0-0.4,0-0.5-0.1
		C48.1,32.1,48,32,48,31.8c0-0.2,0.1-0.3,0.2-0.4c0.1-0.1,0.3-0.1,0.5-0.1H51v-1.1h-2.6c-1.3,0-1.8,0.8-1.8,1.6
		c0,1.7,1.5,1.6,2.7,1.7c0.2,0,0.4,0,0.5,0.1c0.1,0.1,0.2,0.2,0.2,0.4c0,0.1-0.1,0.3-0.1,0.3c-0.1,0.1-0.3,0.1-0.5,0.1h-2.5v1.2h2.5
		c1.3,0,2-0.5,2-1.7c0-0.6-0.1-0.9-0.4-1.1C50.6,32.4,50.2,32.3,49.5,32.3z"/>
</g>
</symbol><symbol id="basket" viewBox="0 0 103 92"><path fill="#FFF" d="M0 17.1L68 13 58 55H5"/><path fill="#FFF" d="M10 61h55L82 0h21v7.9L89 8 73 70H10"/><circle cx="20.95" cy="83.95" r="7.95" fill="#FFF"/><circle cx="59.95" cy="83.95" r="7.95" fill="#FFF"/></symbol><symbol id="close-dark" viewBox="0 0 11.995 11.995">
<g>
	<path style="fill-rule:evenodd;clip-rule:evenodd;fill:#2b2b2b;" d="M1.225,0.164l10.607,10.607l-1.061,1.061L0.164,1.225L1.225,0.164
		z"/>
	<path style="fill-rule:evenodd;clip-rule:evenodd;fill:#2b2b2b;" d="M10.905,0L0,10.905l1.09,1.09L11.995,1.09L10.905,0z"/>
</g>
</symbol><symbol id="close-menu" viewBox="49 0 102 100">
<g id="Ellipse_1_1_" style="enable-background:new    ;">
	<g id="Ellipse_1">
		<g>
			<path style="stroke:#000000;stroke-miterlimit:10;" d="M100,5.084c25.029,0,45.395,20.366,45.395,45.395
				S125.029,95.873,100,95.873S54.605,75.508,54.605,50.479S74.971,5.084,100,5.084 M100,0.957
				c-27.348,0-49.521,22.173-49.521,49.521S72.652,100,100,100s49.521-22.173,49.521-49.521S127.348,0.957,100,0.957L100,0.957z"/>
		</g>
	</g>
</g>
<g id="Shape_1_1_" style="enable-background:new    ;">
	<g id="Shape_1_2_">
		<polygon style="stroke:#000000;stroke-miterlimit:10;" points="80.827,28.974 77.905,31.896 119.173,73.164 122.095,70.242 		"/>
	</g>
</g>
<g id="Shape_2_1_" style="enable-background:new    ;">
	<g id="Shape_2">
		<g>
			<polygon style="stroke:#000000;stroke-miterlimit:10;" points="119.173,28.974 77.905,70.242 80.827,73.164 122.095,31.896 			
				"/>
		</g>
	</g>
</g>
</symbol><symbol id="close" viewBox="0 0 11.995 11.995">
<g>
	<path style="fill-rule:evenodd;clip-rule:evenodd;fill:#ffffff;" d="M1.225,0.164l10.607,10.607l-1.061,1.061L0.164,1.225L1.225,0.164
		z"/>
	<path style="fill-rule:evenodd;clip-rule:evenodd;fill:#ffffff;" d="M10.905,0L0,10.905l1.09,1.09L11.995,1.09L10.905,0z"/>
</g>
</symbol><symbol id="discover-footer" viewBox="0 1 30 19">
<g>
	<g id="Layer_1_copy_9_">
		<path d="M22.4,10.3H20V6.2h2.3v0.7h-1.5v0.9h1.4v0.7h-1.4v1.1h1.5V10.3z M23.7,10.3h-0.8V6.2h1.2c0.9,0,1.5,0.4,1.5,1.3
			c0,0.6-0.3,1.1-0.9,1.2l1.3,1.8h-1l-1.2-1.7h-0.1C23.7,8.7,23.7,10.3,23.7,10.3z M23.7,8.1H24c0.5,0,0.8-0.3,0.8-0.6
			s-0.3-0.6-0.8-0.6h-0.3L23.7,8.1L23.7,8.1z M17.9,10.4l1.8-4.3h-0.9L17.7,9l-1.1-2.8h-0.9l1.8,4.3H17.9z M25.9,6.6L25.9,6.6
			l-0.1-0.4h0.1c0.1,0,0.1,0.1,0.1,0.1c0,0.1,0,0.1-0.1,0.1l0.1,0.1H26l-0.1-0.1L25.9,6.6L25.9,6.6z M25.9,6.3L25.9,6.3
			C25.9,6.3,25.9,6.3,25.9,6.3c0.1-0.1,0.1-0.1,0-0.1l0,0V6.3z M3.8,10.3h0.8V6.2H3.8V10.3z M3.4,8.2c0,0.6-0.3,1.2-0.8,1.6
			c-0.4,0.3-0.9,0.5-1.5,0.5H0V6.2h1.2C2.5,6.2,3.4,7,3.4,8.2z M2.6,8.2c0-0.4-0.2-0.8-0.4-1.1S1.6,6.8,1,6.8H0.8v2.8H1
			c0.5,0,0.9-0.1,1.1-0.3C2.4,9,2.6,8.7,2.6,8.2z M13.7,10.5c1,0,1.8-0.6,2.1-1.6c0-0.1,0-0.1,0.1-0.1c0-0.1,0-0.1,0-0.1
			c0-0.1,0.1-0.3,0.1-0.4C16,7,15,6,13.8,6c-0.9,0-1.7,0.6-2.1,1.4c-0.1,0.3-0.2,0.6-0.2,0.9C11.5,9.5,12.5,10.5,13.7,10.5z
			 M10.3,10.4c0.4,0,0.6-0.1,1-0.3V9.2c-0.3,0.3-0.6,0.4-1,0.4c-0.8,0-1.4-0.6-1.4-1.4c0-0.8,0.6-1.4,1.4-1.4c0.4,0,0.7,0.1,1,0.4
			V6.3c-0.4-0.2-0.6-0.3-1-0.3C9,6,8.1,7,8.1,8.2C8,9.5,9,10.4,10.3,10.4z M25.6,6.4c0-0.2,0.1-0.3,0.3-0.3s0.3,0.1,0.3,0.3
			s-0.1,0.3-0.3,0.3C25.7,6.7,25.6,6.6,25.6,6.4z M25.7,6.4c0,0.1,0.1,0.3,0.3,0.3s0.3-0.1,0.3-0.3s-0.1-0.3-0.3-0.3
			S25.7,6.2,25.7,6.4z M30,20v-8c0,0-7.8,5.5-22.1,8H30L30,20z M6.6,7.7C6.1,7.5,5.9,7.4,5.9,7.2c0-0.3,0.3-0.4,0.6-0.4
			c0.3,0,0.4,0.1,0.6,0.3l0.4-0.6C7.3,6.2,6.9,6.1,6.4,6.1c-0.8,0-1.3,0.5-1.3,1.2c0,0.6,0.3,0.9,1,1.1c0.3,0.1,0.5,0.2,0.6,0.3
			c0.2,0.1,0.3,0.3,0.3,0.4c0,0.3-0.3,0.6-0.6,0.6c-0.4,0-0.7-0.2-0.9-0.6L4.9,9.6c0.4,0.6,0.8,0.8,1.4,0.8c0.8,0,1.4-0.6,1.4-1.4
			C7.8,8.4,7.5,8.1,6.6,7.7z"/>
	</g>
</g>
</symbol><symbol id="e-mail-dark" viewBox="0 18.8 200.1 162.5">
<g id="&#x41F;&#x440;&#x44F;&#x43C;&#x43E;&#x443;&#x433;&#x43E;&#x43B;&#x44C;&#x43D;&#x438;&#x43A;_1_1_" enable-background="new    ">
	<g id="&#x41F;&#x440;&#x44F;&#x43C;&#x43E;&#x443;&#x433;&#x43E;&#x43B;&#x44C;&#x43D;&#x438;&#x43A;_1">
		<g>
			<rect y="18.8" fill="#403E49" width="200" height="162.5"/>
		</g>
	</g>
</g>
<polygon fill="#B5C0CA" points="100.1,104.1 0,40.3 0,34.3 102.8,99.8 "/>
<polygon fill="#B5C0CA" points="200.1,40 100.3,104.1 97.6,99.9 200.1,34 "/>
</symbol><symbol id="e-mail" viewBox="0 0 16 13">
<g id="&#x41F;&#x440;&#x44F;&#x43C;&#x43E;&#x443;&#x433;&#x43E;&#x43B;&#x44C;&#x43D;&#x438;&#x43A;_1_1_" style="enable-background:new    ;">
	<g id="&#x41F;&#x440;&#x44F;&#x43C;&#x43E;&#x443;&#x433;&#x43E;&#x43B;&#x44C;&#x43D;&#x438;&#x43A;_1">
		<g>
			<rect style="fill:#FFFFFF;" width="16" height="13"/>
		</g>
	</g>
</g>
<g id="&#x41F;&#x440;&#x44F;&#x43C;&#x43E;&#x443;&#x433;&#x43E;&#x43B;&#x44C;&#x43D;&#x438;&#x43A;_2_1_" style="enable-background:new    ;">
	<g id="&#x41F;&#x440;&#x44F;&#x43C;&#x43E;&#x443;&#x433;&#x43E;&#x43B;&#x44C;&#x43D;&#x438;&#x43A;_2">
		<g>
			<rect style="fill:#B5C0CA;" width="2" height="13"/>
		</g>
	</g>
</g>
<g id="&#x41F;&#x440;&#x44F;&#x43C;&#x43E;&#x443;&#x433;&#x43E;&#x43B;&#x44C;&#x43D;&#x438;&#x43A;_2_&#x43A;&#x43E;&#x43F;&#x438;&#x44F;_1_" style="enable-background:new    ;">
	
		<g id="&#x41F;&#x440;&#x44F;&#x43C;&#x43E;&#x443;&#x433;&#x43E;&#x43B;&#x44C;&#x43D;&#x438;&#x43A;_2_&#x43A;&#x43E;&#x43F;&#x438;&#x44F;">
		<g>
			<rect x="14" style="fill:#B5C0CA;" width="2" height="13"/>
		</g>
	</g>
</g>
<g id="&#x41F;&#x440;&#x44F;&#x43C;&#x43E;&#x443;&#x433;&#x43E;&#x43B;&#x44C;&#x43D;&#x438;&#x43A;_2_&#x43A;&#x43E;&#x43F;&#x438;&#x44F;_2_1_" style="enable-background:new    ;">
	
		<g id="&#x41F;&#x440;&#x44F;&#x43C;&#x43E;&#x443;&#x433;&#x43E;&#x43B;&#x44C;&#x43D;&#x438;&#x43A;_2_&#x43A;&#x43E;&#x43F;&#x438;&#x44F;_2">
		<g>
			<rect style="fill:#B5C0CA;" width="16" height="2"/>
		</g>
	</g>
</g>
<g id="&#x41F;&#x440;&#x44F;&#x43C;&#x43E;&#x443;&#x433;&#x43E;&#x43B;&#x44C;&#x43D;&#x438;&#x43A;_2_&#x43A;&#x43E;&#x43F;&#x438;&#x44F;_3_1_" style="enable-background:new    ;">
	
		<g id="&#x41F;&#x440;&#x44F;&#x43C;&#x43E;&#x443;&#x433;&#x43E;&#x43B;&#x44C;&#x43D;&#x438;&#x43A;_2_&#x43A;&#x43E;&#x43F;&#x438;&#x44F;_3">
		<g>
			<rect y="11" style="fill:#B5C0CA;" width="16" height="2"/>
		</g>
	</g>
</g>
<g id="&#x41F;&#x440;&#x44F;&#x43C;&#x43E;&#x443;&#x433;&#x43E;&#x43B;&#x44C;&#x43D;&#x438;&#x43A;_2_&#x43A;&#x43E;&#x43F;&#x438;&#x44F;_4_1_" style="enable-background:new    ;">
	
		<g id="&#x41F;&#x440;&#x44F;&#x43C;&#x43E;&#x443;&#x433;&#x43E;&#x43B;&#x44C;&#x43D;&#x438;&#x43A;_2_&#x43A;&#x43E;&#x43F;&#x438;&#x44F;_4">
		<g>
			<polygon style="fill-rule:evenodd;clip-rule:evenodd;fill:#B5C0CA;" points="14.225,0.082 7.156,6.5 8,8 15.729,1.627 			"/>
		</g>
	</g>
</g>
<g id="&#x41F;&#x440;&#x44F;&#x43C;&#x43E;&#x443;&#x433;&#x43E;&#x43B;&#x44C;&#x43D;&#x438;&#x43A;_2_&#x43A;&#x43E;&#x43F;&#x438;&#x44F;_5_1_" style="enable-background:new    ;">
	
		<g id="&#x41F;&#x440;&#x44F;&#x43C;&#x43E;&#x443;&#x433;&#x43E;&#x43B;&#x44C;&#x43D;&#x438;&#x43A;_2_&#x43A;&#x43E;&#x43F;&#x438;&#x44F;_5">
		<g>
			<polygon style="fill-rule:evenodd;clip-rule:evenodd;fill:#B5C0CA;" points="1.737,0.082 0.178,1.62 8,8 9.008,6.663 			"/>
		</g>
	</g>
</g>
</symbol><symbol id="mail-footer" viewBox="0 0 485.211 485.211">
<g>
	<path d="M485.211,80.792V424.56H0V80.792l242.606,212.282L485.211,80.792z M462.174,60.651H23.027l219.579,192.142L462.174,60.651z
		"/>
</g>
<g>
</g>
<g>
</g>
<g>
</g>
<g>
</g>
<g>
</g>
<g>
</g>
<g>
</g>
<g>
</g>
<g>
</g>
<g>
</g>
<g>
</g>
<g>
</g>
<g>
</g>
<g>
</g>
<g>
</g>
</symbol><symbol id="mastercard-footer" viewBox="0 0 30 19.5">
<g>
	<path fill="#2A3490" d="M8,8.4c-0.6,0-1,0.2-1,0.2L6.9,9.3c0,0,0.4-0.2,0.9-0.2c0.3,0,0.5,0.1,0.5,0.3c0,0.2-0.1,0.2-0.1,0.2
		s-0.3,0-0.4,0c-0.7,0-1.4,0.3-1.4,1.2c0,0.7,0.5,0.9,0.8,0.9c0.6,0,0.8-0.4,0.8-0.4l-0.1,0.3h0.7l0.3-2.3C9.1,8.5,8.3,8.4,8,8.4z
		 M7.6,11.1c-0.3,0-0.3-0.2-0.3-0.3c0-0.2,0.1-0.5,0.7-0.5c0.2,0,0.2,0,0.2,0C8.2,10.4,8.1,11.1,7.6,11.1z M10.1,9.5
		c0,0.4,1,0.2,1,1.2c0,1.1-1.1,1.1-1.2,1.1c-0.7,0-0.9-0.1-0.9-0.1l0.1-0.7c0,0,0.3,0.1,0.7,0.1c0.2,0,0.5,0,0.5-0.3
		c0-0.4-1-0.3-1-1.2c0-0.8,0.6-1.1,1.2-1.1c0.5,0,0.7,0.1,0.7,0.1l-0.2,0.7c0,0-0.4-0.1-0.6-0.1C10.3,9.2,10.1,9.3,10.1,9.5z
		 M12.1,10.7c0,0.1,0,0.3,0.3,0.3c0.1,0,0.2,0,0.2,0l-0.1,0.7c-0.1,0-0.3,0.1-0.6,0.1c-0.4,0-0.6-0.2-0.6-0.7c0-0.3,0.5-3,0.5-3h0.8
		l-0.1,0.5h0.4l-0.2,0.7h-0.4L12.1,10.7z M15.2,10.4c0,0,0.1-0.5,0.1-0.7c0-0.5-0.3-1.2-1.2-1.2c-0.8,0-1.4,0.9-1.4,1.9
		c0,1.2,0.7,1.4,1.4,1.4c0.6,0,0.8-0.2,0.8-0.2l0.2-0.8c0,0-0.5,0.2-0.8,0.2c-0.9,0-0.7-0.6-0.7-0.6L15.2,10.4z M14.2,9.2
		c0.5,0,0.4,0.5,0.4,0.6h-0.9C13.6,9.7,13.8,9.2,14.2,9.2z M6.7,7.8l-0.6,3.9H5.3l0.5-2.9l-1.1,2.9H4.1L4.1,8.8l-0.5,2.9H2.8
		l0.6-3.9h1.2l0.1,2.4l0.8-2.4H6.7z M17.2,7.3h-4.2c0.1-0.1,0.2-0.4,0.4-0.8h3.5C16.9,6.7,17,7,17.2,7.3z M16.4,5.6h-2.6
		c0.2-0.3,0.4-0.6,0.5-0.8h1.5C16,5.1,16.2,5.4,16.4,5.6z M15,15.5c-0.3-0.3-0.5-0.5-0.8-0.8h1.6C15.6,14.9,15.3,15.2,15,15.5
		L15,15.5C15,15.5,15,15.5,15,15.5C15,15.5,15,15.5,15,15.5z M16.4,13.8h-2.7c-0.2-0.3-0.3-0.5-0.5-0.8h3.6
		C16.7,13.3,16.5,13.5,16.4,13.8z M17.4,8.5c-0.1,0.2-0.2,0.4-0.3,1c-0.6-0.2-0.6,0.9-0.8,2.3h-0.8l0.5-3.2h0.7L16.6,9
		c0,0,0.3-0.5,0.6-0.5C17.3,8.5,17.4,8.5,17.4,8.5z M18.8,10.9c0.3,0,0.7-0.2,0.7-0.2l-0.2,0.9c0,0-0.4,0.1-0.7,0.1
		c-1,0-1.5-0.7-1.5-1.7c0-1.5,0.9-2.3,1.9-2.3c0.4,0,0.9,0.2,0.9,0.2l-0.2,0.8c0,0-0.3-0.2-0.7-0.2C18.5,8.5,18,9.1,18,10
		C18.1,10.5,18.3,10.9,18.8,10.9z M26.9,11.3c-0.1,0-0.1,0.1-0.1,0.1c0,0.1-0.1,0.1-0.1,0.1s0,0.1,0.1,0.1c0,0.1,0.1,0.1,0.1,0.1
		c0.1,0,0.1,0.1,0.1,0.1c0.1,0,0.1,0,0.1-0.1c0.1,0,0.1-0.1,0.1-0.1c0-0.1,0.1-0.1,0.1-0.1c0-0.1,0-0.1-0.1-0.1
		c0-0.1-0.1-0.1-0.1-0.1c0-0.1-0.1-0.1-0.1-0.1C26.9,11.2,26.9,11.2,26.9,11.3z M27.1,11.4c0,0.1,0.1,0.1,0.1,0.1s0,0.1-0.1,0.1
		c0,0.1-0.1,0.1-0.1,0.1c-0.1,0-0.1,0.1-0.1,0.1c-0.1,0-0.1,0-0.1-0.1c-0.1,0-0.1-0.1-0.1-0.1s-0.1-0.1-0.1-0.1s0-0.1,0.1-0.1
		c0-0.1,0.1-0.1,0.1-0.1s0.1,0,0.1,0S27,11.3,27.1,11.4C27.1,11.3,27.1,11.3,27.1,11.4z M23.8,10.4c0,0.7,0.3,1.3,1,1.3
		c0.5,0,0.7-0.3,0.7-0.3l-0.1,0.3h0.8L27,7.9h-0.8L26,8.9c0,0-0.3-0.4-0.8-0.4C24.5,8.5,23.8,9.4,23.8,10.4z M25.8,9.9
		c0,0.4-0.2,1-0.6,1c-0.3,0-0.4-0.3-0.4-0.6c0-0.6,0.3-1.1,0.6-1.1C25.6,9.2,25.8,9.5,25.8,9.9z M27.1,14L27.1,14L27.1,14
		c0.1-0.1,0.1-0.1,0.1-0.1v-0.1c0,0,0,0-0.1,0h-0.1H27v0.3l0,0H27V14l0,0C27.1,14,27.1,14,27.1,14C27.1,14,27.1,14.1,27.1,14v0.1
		h0.1L27.1,14C27.1,14.1,27.1,14.1,27.1,14z M27.1,14L27.1,14L27,13.9h0.1h0.1l0,0l0,0C27.1,14,27.1,14,27.1,14
		C27.1,14,27.1,14,27.1,14z M29.2,0H0.8C0.3,0,0,0.4,0,0.8v17.9c0,0.4,0.3,0.8,0.8,0.8h28.4c0.4,0,0.8-0.4,0.8-0.8V0.8
		C30,0.4,29.6,0,29.2,0z M27.3,14.1c0,0.1-0.1,0.1-0.1,0.1c-0.1,0.1-0.1,0.1-0.1,0.1c-0.1,0-0.1,0-0.1-0.1c-0.1,0-0.1-0.1-0.1-0.1
		c0-0.1-0.1-0.1-0.1-0.1s0-0.1,0.1-0.1c0-0.1,0.1-0.1,0.1-0.1c0.1,0,0.1-0.1,0.1-0.1c0.1,0,0.1,0,0.1,0.1c0.1,0,0.1,0.1,0.1,0.1
		c0,0.1,0.1,0.1,0.1,0.1S27.3,14.1,27.3,14.1z M27.9,9.7c0,4.2-3.5,7.7-7.7,7.7c-2,0-3.8-0.7-5.2-2c-1.4,1.2-3.2,2-5.2,2
		c-4.2,0-7.7-3.5-7.7-7.7S5.6,2.1,9.8,2h0.1c2,0,3.8,0.7,5.2,2c1.4-1.2,3.2-2,5.2-2C24.4,2,27.9,5.5,27.9,9.7L27.9,9.7z M26.9,11.3
		v0.3h0.1v-0.1l0,0H27c0,0,0,0.1,0.1,0.1v0.1h0.1v-0.1L27,11.5l0,0h0.1v-0.1v-0.1c0,0,0,0-0.1,0s-0.1,0-0.1,0L26.9,11.3L26.9,11.3z
		 M27,11.4C27,11.4,27,11.4,27,11.4C27,11.4,27,11.4,27,11.4C27,11.4,27,11.4,27,11.4l-0.1,0.1v-0.1L27,11.4
		C27,11.4,27,11.4,27,11.4L27,11.4z M21.3,8.4c-0.6,0-1,0.2-1,0.2l-0.1,0.7c0,0,0.4-0.2,0.9-0.2c0.3,0,0.5,0.1,0.5,0.3
		c0,0.2-0.1,0.2-0.1,0.2s-0.3,0-0.4,0c-0.7,0-1.4,0.3-1.4,1.2c0,0.7,0.5,0.9,0.8,0.9c0.6,0,0.8-0.4,0.8-0.4l-0.1,0.3h0.7l0.3-2.3
		C22.4,8.5,21.6,8.4,21.3,8.4z M20.9,11.1c-0.3,0-0.3-0.2-0.3-0.3c0-0.2,0.1-0.5,0.7-0.5c0.2,0,0.2,0,0.2,0
		C21.5,10.4,21.3,11.1,20.9,11.1z M23.9,9.5c-0.6-0.2-0.6,0.9-0.8,2.3h-0.8l0.5-3.2h0.7L23.4,9c0,0,0.3-0.5,0.6-0.5
		c0.1,0,0.2,0,0.2,0C24.1,8.7,24,8.9,23.9,9.5z"/>
</g>
</symbol><symbol id="Name" viewBox="0 0 16 16">
<g id="&#x41F;&#x440;&#x44F;&#x43C;&#x43E;&#x443;&#x433;&#x43E;&#x43B;&#x44C;&#x43D;&#x438;&#x43A;_1_1_" style="enable-background:new    ;">
	<g id="&#x41F;&#x440;&#x44F;&#x43C;&#x43E;&#x443;&#x433;&#x43E;&#x43B;&#x44C;&#x43D;&#x438;&#x43A;_1">
		<g>
			<rect style="fill:#F8F9FA;" width="16" height="16"/>
		</g>
	</g>
</g>
<g id="&#x41F;&#x440;&#x44F;&#x43C;&#x43E;&#x443;&#x433;&#x43E;&#x43B;&#x44C;&#x43D;&#x438;&#x43A;_2_1_" style="enable-background:new    ;">
	<g id="&#x41F;&#x440;&#x44F;&#x43C;&#x43E;&#x443;&#x433;&#x43E;&#x43B;&#x44C;&#x43D;&#x438;&#x43A;_2">
		<g>
			<rect x="2" y="3" style="fill:#566984;" width="6" height="6"/>
		</g>
	</g>
</g>
<g id="&#x41F;&#x440;&#x44F;&#x43C;&#x43E;&#x443;&#x433;&#x43E;&#x43B;&#x44C;&#x43D;&#x438;&#x43A;_2_&#x43A;&#x43E;&#x43F;&#x438;&#x44F;_1_" style="enable-background:new    ;">
	
		<g id="&#x41F;&#x440;&#x44F;&#x43C;&#x43E;&#x443;&#x433;&#x43E;&#x43B;&#x44C;&#x43D;&#x438;&#x43A;_2_&#x43A;&#x43E;&#x43F;&#x438;&#x44F;">
		<g>
			<rect x="10" y="3" style="fill:#566984;" width="4" height="1"/>
		</g>
	</g>
</g>
<g id="&#x41F;&#x440;&#x44F;&#x43C;&#x43E;&#x443;&#x433;&#x43E;&#x43B;&#x44C;&#x43D;&#x438;&#x43A;_2_&#x43A;&#x43E;&#x43F;&#x438;&#x44F;_2_1_" style="enable-background:new    ;">
	
		<g id="&#x41F;&#x440;&#x44F;&#x43C;&#x43E;&#x443;&#x433;&#x43E;&#x43B;&#x44C;&#x43D;&#x438;&#x43A;_2_&#x43A;&#x43E;&#x43F;&#x438;&#x44F;_2">
		<g>
			<rect x="10" y="5" style="fill:#566984;" width="4" height="1"/>
		</g>
	</g>
</g>
<g id="&#x41F;&#x440;&#x44F;&#x43C;&#x43E;&#x443;&#x433;&#x43E;&#x43B;&#x44C;&#x43D;&#x438;&#x43A;_2_&#x43A;&#x43E;&#x43F;&#x438;&#x44F;_4_1_" style="enable-background:new    ;">
	
		<g id="&#x41F;&#x440;&#x44F;&#x43C;&#x43E;&#x443;&#x433;&#x43E;&#x43B;&#x44C;&#x43D;&#x438;&#x43A;_2_&#x43A;&#x43E;&#x43F;&#x438;&#x44F;_4">
		<g>
			<rect x="2" y="12" style="fill:#566984;" width="12" height="1"/>
		</g>
	</g>
</g>
<g id="&#x41F;&#x440;&#x44F;&#x43C;&#x43E;&#x443;&#x433;&#x43E;&#x43B;&#x44C;&#x43D;&#x438;&#x43A;_2_&#x43A;&#x43E;&#x43F;&#x438;&#x44F;_5_1_" style="enable-background:new    ;">
	
		<g id="&#x41F;&#x440;&#x44F;&#x43C;&#x43E;&#x443;&#x433;&#x43E;&#x43B;&#x44C;&#x43D;&#x438;&#x43A;_2_&#x43A;&#x43E;&#x43F;&#x438;&#x44F;_5">
		<g>
			<rect x="2" y="14" style="fill:#566984;" width="12" height="1"/>
		</g>
	</g>
</g>
<g id="&#x41F;&#x440;&#x44F;&#x43C;&#x43E;&#x443;&#x433;&#x43E;&#x43B;&#x44C;&#x43D;&#x438;&#x43A;_2_&#x43A;&#x43E;&#x43F;&#x438;&#x44F;_3_1_" style="enable-background:new    ;">
	
		<g id="&#x41F;&#x440;&#x44F;&#x43C;&#x43E;&#x443;&#x433;&#x43E;&#x43B;&#x44C;&#x43D;&#x438;&#x43A;_2_&#x43A;&#x43E;&#x43F;&#x438;&#x44F;_3">
		<g>
			<rect x="10" y="7" style="fill:#566984;" width="2" height="1"/>
		</g>
	</g>
</g>
</symbol><symbol id="neklo_logo" viewBox="0 0 221.954 32.979">
<g>
	<path style="fill:#FFFFFF;" d="M17.089,0.48l16.753,23.858h1.008L34.611,0.48h9.937v32.018H27.602L10.753,8.593H9.697l0.24,23.906
		H0V0.48H17.089z"/>
	<path style="fill:#FFFFFF;" d="M86.834,0.48v7.537H61.008v4.656h24.53v7.057h-24.53v5.088h26.019v7.68H51.408V0.48H86.834z"/>
	<path style="fill:#FFFFFF;" d="M102.241,0.48v11.617h5.328l12.673-11.809h14.93l-18.53,15.89l20.066,16.321h-14.785l-14.353-12.241
		h-5.328v12.241h-9.745V0.48H102.241z"/>
	<path style="fill:#FFFFFF;" d="M150.626,0.48v23.858h22.754v8.16H140.4V0.48H150.626z"/>
	<path style="fill:#FFFFFF;" d="M218.786,2.208c2.448,1.872,3.168,5.088,3.168,14.257c0,9.217-0.72,12.433-3.168,14.305
		c-2.448,1.872-5.473,2.208-18.722,2.208c-13.489,0-16.466-0.336-18.914-2.208c-2.496-1.92-3.168-5.088-3.168-14.498
		c0-8.929,0.72-12.193,3.168-14.065C183.598,0.336,186.575,0,199.968,0C213.361,0,216.337,0.336,218.786,2.208z M188.495,10.321
		c-0.576,1.104-0.768,2.928-0.768,7.008c0,3.984,0.288,5.281,1.44,6.193c1.296,1.008,2.832,1.152,10.896,1.152
		c7.825,0,9.409-0.192,10.705-1.152c1.103-0.864,1.44-2.256,1.44-6.144c0-4.753-0.288-6.577-1.152-7.633
		c-1.104-1.296-2.16-1.44-11.089-1.44C190.367,8.305,189.456,8.449,188.495,10.321z"/>
</g>
</symbol><symbol id="neklo_logo_blue" viewBox="0 14.3 30 4.5">
<g>
	<path fill="#1C76AF" d="M2.3,14.3l2.3,3.2h0.1l0-3.2H6v4.3H3.7l-2.3-3.2H1.3l0,3.2H0v-4.3H2.3z"/>
	<path fill="#1C76AF" d="M11.7,14.3v1H8.2V16h3.3v1H8.2v0.7h3.5v1H6.9v-4.3H11.7z"/>
	<path fill="#1C76AF" d="M13.8,14.3v1.6h0.7l1.7-1.6h2l-2.5,2.1l2.7,2.2h-2L14.5,17h-0.7v1.7h-1.3v-4.3H13.8z"/>
	<path fill="#1C76AF" d="M20.4,14.3v3.2h3.1v1.1H19v-4.3H20.4z"/>
	<path fill="#1C76AF" d="M29.6,14.6c0.3,0.3,0.4,0.7,0.4,1.9c0,1.2-0.1,1.7-0.4,1.9s-0.7,0.3-2.5,0.3c-1.8,0-2.2,0-2.6-0.3
		c-0.3-0.3-0.4-0.7-0.4-2c0-1.2,0.1-1.6,0.4-1.9c0.3-0.3,0.7-0.3,2.5-0.3S29.2,14.3,29.6,14.6z M25.5,15.7c-0.1,0.1-0.1,0.4-0.1,0.9
		c0,0.5,0,0.7,0.2,0.8c0.2,0.1,0.4,0.2,1.5,0.2c1.1,0,1.3,0,1.4-0.2c0.1-0.1,0.2-0.3,0.2-0.8c0-0.6,0-0.9-0.2-1
		c-0.1-0.2-0.3-0.2-1.5-0.2C25.7,15.4,25.6,15.4,25.5,15.7z"/>
</g>
</symbol><symbol id="Password" viewBox="0 0 12 16">
<g id="&#x424;&#x438;&#x433;&#x443;&#x440;&#x430;_1_1_" style="enable-background:new    ;">
	<g id="&#x424;&#x438;&#x433;&#x443;&#x440;&#x430;_1">
		<g>
			<path style="fill:#B5C1C9;" d="M6,0C0,0,1,7,1,7h2c0,0-0.625-5,3-5s3,5,3,5h2C11,7,12,0,6,0z"/>
		</g>
	</g>
</g>
<g id="&#x41F;&#x440;&#x44F;&#x43C;&#x43E;&#x443;&#x433;&#x43E;&#x43B;&#x44C;&#x43D;&#x438;&#x43A;_1_1_" style="enable-background:new    ;">
	<g id="&#x41F;&#x440;&#x44F;&#x43C;&#x43E;&#x443;&#x433;&#x43E;&#x43B;&#x44C;&#x43D;&#x438;&#x43A;_1">
		<g>
			<rect y="7" style="fill:#B5C1C9;" width="12" height="9"/>
		</g>
	</g>
</g>
<g id="&#x41F;&#x440;&#x44F;&#x43C;&#x43E;&#x443;&#x433;&#x43E;&#x43B;&#x44C;&#x43D;&#x438;&#x43A;_2_1_" style="enable-background:new    ;">
	<g id="&#x41F;&#x440;&#x44F;&#x43C;&#x43E;&#x443;&#x433;&#x43E;&#x43B;&#x44C;&#x43D;&#x438;&#x43A;_2">
		<g>
			<rect x="2" y="9" style="fill-rule:evenodd;clip-rule:evenodd;fill:#FFFFFF;" width="8" height="5"/>
		</g>
	</g>
</g>
</symbol><symbol id="paypal-footer" viewBox="0 7.7 50.4 33">
<g>
	<g id="Layer_1_copy_5_">
		<path d="M9,20.6c-0.2-0.3-0.4-0.6-0.8-0.8c-0.3-0.2-0.7-0.4-1.2-0.4c-0.5-0.1-1-0.1-1.6-0.1l-2.9,0c-0.3,0-0.6,0.2-0.7,0.5L0,28.2
			c-0.1,0.3,0.1,0.5,0.4,0.5h1.4c0.3,0,0.6-0.2,0.7-0.5l0.5-2c0.1-0.3,0.4-0.5,0.7-0.5H4c1.7,0,3-0.3,3.9-1c0.9-0.7,1.4-1.6,1.4-2.7
			C9.3,21.3,9.2,20.9,9,20.6z M6.1,23.3c-0.4,0.3-1,0.5-1.7,0.5H4c-0.3,0-0.5-0.2-0.4-0.5L4,21.5C4.1,21.2,4.4,21,4.7,21l0.4,0
			c0.5,0,0.9,0.1,1.2,0.3c0.3,0.2,0.4,0.5,0.4,0.8C6.7,22.6,6.5,23,6.1,23.3z M24.9,22.3l-5.5,9.3c-0.2,0.3-0.6,0.5-0.9,0.5l-1.4,0
			c-0.3,0-0.4-0.2-0.2-0.5l1.2-2.1c0,0,0.1-0.1,0-0.8C18,27.3,17.1,22,17.1,22c-0.1-0.3,0.1-0.5,0.4-0.5l1.2,0
			c0.4,0,0.7,0.2,0.7,0.5l0.6,3.7l0.2,0c0.2-0.3,2.2-3.7,2.2-3.7c0.2-0.3,0.6-0.5,0.9-0.5c0,0,1.3,0,1.6,0
			C25.5,21.5,24.9,22.3,24.9,22.3z M34,20.6c-0.2-0.3-0.4-0.6-0.8-0.8c-0.3-0.2-0.7-0.4-1.2-0.4c-0.5-0.1-1-0.1-1.6-0.1l-2.9,0
			c-0.3,0-0.6,0.2-0.7,0.5l-1.9,8.4c-0.1,0.3,0.1,0.5,0.4,0.5l1.4,0c0.3,0,0.6-0.2,0.7-0.5l0.5-2c0.1-0.3,0.4-0.5,0.7-0.5h0.4
			c1.7,0,3-0.3,3.9-1c0.9-0.7,1.4-1.6,1.4-2.7C34.2,21.4,34.1,21,34,20.6z M31,23.4c-0.4,0.3-1,0.5-1.7,0.5h-0.3
			c-0.3,0-0.5-0.2-0.4-0.5l0.4-1.8c0.1-0.3,0.4-0.5,0.7-0.5l0.4,0c0.5,0,0.9,0.1,1.2,0.3c0.3,0.2,0.4,0.5,0.4,0.8
			C31.6,22.6,31.4,23.1,31,23.4z M15.7,21.8c-0.5-0.3-1.3-0.4-2.5-0.4c-0.6,0-1.1,0-1.7,0.1c-0.4,0.1-0.5,0.1-0.7,0.1
			c-0.5,0.1-0.6,0.6-0.6,0.6L10.1,23c-0.1,0.4,0.2,0.4,0.3,0.4c0.2-0.1,0.4-0.1,0.8-0.2c0.4-0.1,0.9-0.2,1.3-0.2
			c0.5,0,1,0.1,1.2,0.2c0.3,0.1,0.4,0.3,0.4,0.6l0,0.2L13.9,24c-0.8,0-1.3,0.1-2,0.2c-0.7,0.1-1.3,0.3-1.7,0.5
			c-0.5,0.2-0.9,0.5-1.2,0.9c-0.3,0.4-0.4,0.9-0.4,1.4c0,0.5,0.2,1,0.6,1.3c0.4,0.3,0.9,0.5,1.4,0.5c0.4,0,0.7,0,0.9-0.1l0.7-0.2
			l0.6-0.3l0.5-0.3l0,0l-0.1,0.2l0,0v0c-0.1,0.3,0.1,0.5,0.4,0.5l0,0h0h1.1h0.2l0,0c0.3,0,0.5-0.3,0.6-0.5l1-4.3l0.1-0.4l0-0.3
			C16.4,22.5,16.2,22.1,15.7,21.8z M13.4,26.7L13.2,27l-0.5,0.3c-0.3,0.1-0.5,0.2-0.7,0.2c-0.3,0-0.6,0-0.8-0.1l-0.3-0.5
			c0-0.3,0.1-0.5,0.2-0.7l0.6-0.4c0.2-0.1,0.6-0.2,0.9-0.2c0.3,0,0.9-0.1,1-0.1l0.1,0.2C13.7,25.6,13.5,26.3,13.4,26.7z M47.7,18.8
			h0.5v0.2h-0.5v0.6l0,0.2l0,0.1l0.1,0.1l0.1,0l0.1,0l0.1,0h0v0.2l-0.1,0l-0.1,0L47.6,20l-0.1-0.4V19h-0.2v-0.2h0.2v-0.4h0.2V18.8
			L47.7,18.8z M40.6,21.8c-0.5-0.3-1.3-0.4-2.5-0.4c-0.6,0-1.1,0-1.7,0.1c-0.4,0.1-0.5,0.1-0.7,0.1c-0.5,0.1-0.6,0.6-0.6,0.6L35,23
			c-0.1,0.4,0.2,0.4,0.3,0.4c0.2-0.1,0.4-0.1,0.8-0.2c0.4-0.1,0.9-0.2,1.3-0.2c0.5,0,1,0.1,1.2,0.2c0.3,0.1,0.4,0.3,0.4,0.6l0,0.2
			L38.8,24c-0.8,0-1.4,0.1-2,0.2c-0.7,0.1-1.3,0.3-1.7,0.5c-0.5,0.2-0.9,0.5-1.2,0.9c-0.3,0.4-0.4,0.9-0.4,1.4c0,0.5,0.2,1,0.6,1.3
			c0.4,0.3,0.9,0.5,1.4,0.5c0.4,0,0.7,0,0.9-0.1l0.7-0.2l0.6-0.3l0.5-0.3l0,0l0,0.2l0,0l0,0c-0.1,0.3,0.1,0.5,0.4,0.5l0,0h0l0,0
			c0.2,0,0.8,0,1.1,0h0.2l0,0c0.3,0,0.5-0.3,0.6-0.5l1-4.3l0.1-0.4l0-0.3C41.4,22.6,41.1,22.1,40.6,21.8z M38.4,26.7L38.2,27
			l-0.5,0.3c-0.3,0.1-0.5,0.2-0.7,0.2c-0.3,0-0.6,0-0.8-0.1l-0.3-0.5c0-0.3,0.1-0.5,0.2-0.7c0.1-0.2,0.3-0.3,0.6-0.4
			c0.2-0.1,0.5-0.2,0.9-0.2c0.3,0,0.9-0.1,1-0.1l0.1,0.2C38.6,25.6,38.5,26.3,38.4,26.7z M45.7,19.8L45.7,19.8l-1.8,8.3l-0.1,0.1
			c-0.1,0.2-0.3,0.4-0.6,0.4H42l0,0c-0.2,0-0.4-0.2-0.3-0.5l0,0l0.1-0.2l1.7-7.8l0.1-0.3l0.1-0.1c0.1-0.2,0.3-0.4,0.6-0.4h1.2
			C45.6,19.3,45.8,19.6,45.7,19.8z M50.3,18.9l0.1,0.4v0.9h-0.2v-0.8l0-0.2l0-0.1L50.1,19l-0.1,0l-0.2,0l-0.2,0.1l0,0.1l0,0.1v0.9
			h-0.2v-0.8l0-0.2l0-0.1L49.2,19l-0.2,0l-0.2,0l-0.2,0.1v1h-0.2v-1.3h0.2v0.1l0.2-0.1l0.2,0l0.2,0.1l0.1,0.2l0.2-0.2l0.2,0
			L50.3,18.9z"/>
	</g>
</g>
</symbol><symbol id="phone-dark" viewBox="0 0 25.625 25.625">
<g>
	<path style="fill:#403e49;" d="M22.079,17.835c-1.548-1.324-3.119-2.126-4.648-0.804l-0.913,0.799
		c-0.668,0.58-1.91,3.29-6.712-2.234C5.005,10.079,7.862,9.22,8.531,8.645l0.918-0.8c1.521-1.325,0.947-2.993-0.15-4.71l-0.662-1.04
		C7.535,0.382,6.335-0.743,4.81,0.58L3.986,1.3C3.312,1.791,1.428,3.387,0.971,6.419c-0.55,3.638,1.185,7.804,5.16,12.375
		c3.97,4.573,7.857,6.87,11.539,6.83c3.06-0.033,4.908-1.675,5.486-2.272l0.827-0.721c1.521-1.322,0.576-2.668-0.973-3.995
		L22.079,17.835z"/>
</g>
</symbol><symbol id="phone" viewBox="0 0 25.625 25.625">
<g>
	<path style="fill:#B5C1C9;" d="M22.079,17.835c-1.548-1.324-3.119-2.126-4.648-0.804l-0.913,0.799
		c-0.668,0.58-1.91,3.29-6.712-2.234C5.005,10.079,7.862,9.22,8.531,8.645l0.918-0.8c1.521-1.325,0.947-2.993-0.15-4.71l-0.662-1.04
		C7.535,0.382,6.335-0.743,4.81,0.58L3.986,1.3C3.312,1.791,1.428,3.387,0.971,6.419c-0.55,3.638,1.185,7.804,5.16,12.375
		c3.97,4.573,7.857,6.87,11.539,6.83c3.06-0.033,4.908-1.675,5.486-2.272l0.827-0.721c1.521-1.322,0.576-2.668-0.973-3.995
		L22.079,17.835z"/>
</g>
</symbol><symbol id="shopping-cart" viewBox="0 0 475.084 475.085">
<g>
	<g>
		<path d="M365.446,401.998c0,10.092,3.579,18.702,10.711,25.834c7.132,7.139,15.749,10.711,25.845,10.711
			c10.081,0,18.698-3.572,25.83-10.711c7.139-7.132,10.711-15.742,10.711-25.834s-3.568-18.702-10.711-25.841
			c-7.132-7.132-15.749-10.704-25.83-10.704c-10.096,0-18.713,3.572-25.845,10.704C369.025,383.296,365.446,391.906,365.446,401.998
			z"/>
		<path d="M469.658,78.51c-3.618-3.617-7.898-5.426-12.848-5.426H113.918c-0.193-1.331-0.621-3.756-1.287-7.277
			c-0.666-3.523-1.188-6.329-1.569-8.425c-0.383-2.087-1.093-4.611-2.142-7.561c-1.047-2.952-2.284-5.286-3.711-6.995
			c-1.425-1.718-3.328-3.189-5.708-4.43c-2.378-1.233-5.092-1.853-8.136-1.853H18.276c-4.952,0-9.234,1.812-12.85,5.424
			C1.809,45.583,0,49.868,0,54.816s1.809,9.231,5.426,12.847c3.619,3.617,7.902,5.424,12.85,5.424h58.237l50.532,234.976
			c-0.378,0.76-2.329,4.373-5.852,10.848c-3.521,6.475-6.328,12.135-8.42,16.988c-2.093,4.859-3.14,8.616-3.14,11.279
			c0,4.948,1.809,9.232,5.424,12.854c3.621,3.606,7.902,5.421,12.851,5.421h18.272h255.815h18.261c4.948,0,9.232-1.814,12.847-5.421
			c3.62-3.621,5.427-7.905,5.427-12.854c0-4.949-1.807-9.233-5.427-12.847c-3.614-3.614-7.898-5.428-12.847-5.428h-262.66
			c4.57-9.138,6.854-15.222,6.854-18.268c0-1.909-0.238-4.004-0.715-6.283s-1.047-4.805-1.713-7.569
			c-0.667-2.752-1.093-4.799-1.283-6.133l298.077-34.831c4.753-0.575,8.658-2.614,11.703-6.14c3.046-3.518,4.565-7.562,4.565-12.133
			V91.363C475.082,86.415,473.278,82.132,469.658,78.51z"/>
		<path d="M109.632,401.998c0,10.092,3.567,18.702,10.706,25.834c7.141,7.139,15.75,10.711,25.841,10.711
			c10.085,0,18.699-3.572,25.835-10.711c7.139-7.132,10.71-15.742,10.71-25.834s-3.568-18.702-10.71-25.841
			c-7.137-7.132-15.75-10.704-25.835-10.704c-10.09,0-18.704,3.572-25.841,10.704C113.203,383.296,109.632,391.906,109.632,401.998z
			"/>
	</g>
</g>
<g>
</g>
<g>
</g>
<g>
</g>
<g>
</g>
<g>
</g>
<g>
</g>
<g>
</g>
<g>
</g>
<g>
</g>
<g>
</g>
<g>
</g>
<g>
</g>
<g>
</g>
<g>
</g>
<g>
</g>
</symbol><symbol id="visa-footer" viewBox="0 9.9 56.5 36.6">
<g>
	<g>
		<path d="M55,9.9H1.5C0.6,9.9,0,10.6,0,11.4v33.7c0,0.8,0.6,1.5,1.5,1.5H55c0.8,0,1.5-0.7,1.5-1.5V11.4C56.5,10.6,55.8,9.9,55,9.9z
			 M4.4,21h6c0.8,0,1.5,0.3,1.7,1.2l1.3,6.3c-1.3-3.3-4.4-6-9.1-7.2L4.4,21z M11.7,35.4L8.2,23.5c2.5,1.6,4.6,4.1,5.4,5.9l0.4,1.5
			l3.8-9.7h4.1l-6.1,14.2L11.7,35.4z M24.9,35.4H21l2.4-14.3h3.9L24.9,35.4z M31.7,35.6c-1.7,0-3.4-0.4-4.3-0.8l0.5-3.2l0.5,0.2
			c1.3,0.5,2.1,0.7,3.7,0.7c1.1,0,2.3-0.4,2.3-1.4c0-0.6-0.5-1.1-2-1.8c-1.5-0.7-3.4-1.8-3.4-3.9c0-2.8,2.7-4.7,6.6-4.7
			c1.5,0,2.7,0.3,3.5,0.6l-0.5,3.1l-0.4-0.2c-0.7-0.3-1.6-0.6-2.9-0.5c-1.5,0-2.2,0.6-2.2,1.2c0,0.7,0.8,1.1,2.2,1.8
			c2.2,1,3.3,2.3,3.3,3.9C38.4,33.7,35.8,35.6,31.7,35.6z M48.5,35.4c0,0-0.4-1.6-0.5-2.1c-0.6,0-4.5,0-5,0
			c-0.2,0.4-0.8,2.1-0.8,2.1h-4.1L44,22.3c0.4-0.9,1.1-1.2,2-1.2h3l3.1,14.3L48.5,35.4L48.5,35.4z"/>
		<path d="M46.3,25c-0.2,0.5-0.5,1.4-0.5,1.4c0,0-1.2,3.2-1.5,4h3.2c-0.2-0.7-0.9-4.1-0.9-4.1L46.3,25z"/>
	</g>
</g>
</symbol></svg>